<svg width="74" height="56" viewBox="0 0 74 56" fill="none" xmlns="http://www.w3.org/2000/svg">
<path d="M45.344 21.6139C45.2056 18.2448 41.5826 15.9833 38.7211 17.6218C37.3365 19.7448 37.2442 23.6216 38.5365 26.0215C41.6057 28.0522 45.6902 25.3292 45.344 21.6139ZM43.5441 21.7293C43.6364 23.1601 42.621 24.3831 41.2595 24.4754C39.898 24.5677 38.7442 23.4601 38.6519 22.0293C38.5596 20.5986 39.5749 19.3755 40.9364 19.2832C41.4672 19.2602 41.9749 19.3986 42.3902 19.6986C42.921 19.2602 43.6364 19.7678 43.6133 20.4601C43.6133 20.6909 43.5441 20.9217 43.4056 21.0832C43.4748 21.2909 43.521 21.4986 43.5441 21.7293Z" fill="#007AFF"/>
<path d="M19.7293 29.898C22.7523 30.2211 25.4984 27.8212 25.8445 24.5674C26.1907 21.3137 24.0215 18.383 20.9985 18.0599C17.9755 17.7368 15.2294 20.1368 14.8833 23.3905C14.5371 26.6443 16.6832 29.575 19.7293 29.898ZM17.2601 23.6444C17.4448 21.7983 18.9909 20.4598 20.6985 20.6445C21.0908 20.6906 21.4831 20.806 21.8062 20.9906C21.9908 20.806 22.2446 20.7137 22.5215 20.7137C23.5138 20.6675 23.9753 22.0983 23.26 22.7444C23.4215 23.229 23.5138 23.7598 23.4446 24.3136C23.26 26.1597 21.7139 27.4981 20.0062 27.3366C18.2986 27.1289 17.0525 25.4905 17.2601 23.6444Z" fill="#007AFF"/>
<path d="M11.3296 18.7754C11.4449 18.5677 11.5603 18.3601 11.6757 18.1524C8.79117 16.0063 4.12976 15.2448 2.42212 15.1755L2.65288 16.4678C3.899 16.4447 8.16811 16.9986 11.3296 18.7754Z" fill="#007AFF"/>
<path d="M10.1528 22.6754C10.1759 22.4446 10.2221 22.1908 10.2682 21.96C8.39902 21.7985 5.39911 21.66 1.72998 22.9523L2.39919 24.083C3.3684 23.5523 6.85291 22.2831 10.1528 22.6754Z" fill="#007AFF"/>
<path d="M28.06 24.7524C28.5446 20.2063 25.5216 16.1218 21.3448 15.6834C17.1449 15.2449 13.3604 18.591 12.8758 23.137C12.322 27.36 15.2988 31.8137 19.591 32.206C23.8601 32.7137 27.7139 28.9984 28.06 24.7524ZM14.8604 23.3909C15.2065 20.114 17.9526 17.7372 20.9756 18.0602C23.9986 18.3833 26.1678 21.2909 25.8216 24.5678C25.4755 27.8446 22.7294 30.2214 19.7064 29.8984C16.6834 29.5753 14.5143 26.6677 14.8604 23.3909Z" fill="white"/>
<path d="M38.5366 26.0214C39.252 27.6136 40.9596 29.1367 42.575 28.9751C46.8672 28.8367 47.9287 20.3446 44.9749 17.2293C43.175 14.8294 40.1981 15.0602 38.7212 17.6216C41.5827 15.9832 45.2057 18.2447 45.3441 21.6138C45.6903 25.3291 41.6058 28.0521 38.5366 26.0214Z" fill="white"/>
<path d="M43.4058 21.0602C43.5212 20.8987 43.6135 20.691 43.6135 20.4372C43.6366 19.7449 42.9212 19.2603 42.3904 19.6757C41.7904 20.1141 42.0443 21.3833 42.8289 21.3371C43.0596 21.3602 43.2673 21.2448 43.4058 21.0602Z" fill="white"/>
<path d="M22.5218 23.0444C22.7987 23.0444 23.0525 22.929 23.2602 22.7444C23.9987 22.0982 23.5141 20.6906 22.5218 20.7137C22.2449 20.7137 22.0141 20.829 21.8064 20.9906C21.0449 21.6136 21.5064 23.0674 22.5218 23.0444Z" fill="white"/>
<path d="M10.9375 19.6063C11.0528 19.3294 11.1913 19.0294 11.3298 18.7755C8.14523 16.9987 3.87612 16.4448 2.65308 16.4448L2.90692 17.9679C4.36072 18.0832 8.16831 18.5217 10.9375 19.6063Z" fill="white"/>
<path d="M10.0836 23.5062C10.1066 23.2292 10.1066 22.9523 10.1528 22.6985C6.87597 22.3062 3.36837 23.5754 2.39917 24.1292L3.06838 25.26C4.15297 24.7754 7.66056 23.4369 10.0836 23.5062Z" fill="white"/>
<path d="M69.6202 54.036C70.0125 51.1977 74.3278 32.6905 71.8125 29.0444C72.6432 37.7903 69.1587 49.2593 67.5203 54.036H69.6202Z" fill="#EE6167"/>
<path d="M34.8214 4.69902C36.7598 6.01437 38.1905 5.85283 38.7443 5.2067C36.1598 1.67603 31.4522 1.05297 26.3985 2.29909C25.2216 2.59908 23.5601 3.22214 22.0371 4.12211C28.8677 0.914509 32.5368 3.15291 34.8214 4.69902Z" fill="#EE6167"/>
<path d="M55.6362 43.6979C56.9977 44.9671 60.2746 48.4285 62.0514 54.0592H67.5205C69.1589 49.2824 72.6434 37.8135 71.8127 29.0675C69.8743 26.2292 66.0206 27.5445 64.336 31.3059C62.8822 34.5597 57.09 41.8749 55.6362 43.6979Z" fill="#E8272F"/>
<path d="M10.6143 20.5524C10.4759 21.0139 10.3374 21.4985 10.2682 21.96C10.222 22.1908 10.199 22.4446 10.1528 22.6754C10.1067 22.9523 10.1067 23.2292 10.0836 23.4831C7.66057 23.4369 4.17605 24.7523 3.06839 25.2369L3.80683 26.483C4.91449 25.9522 8.05287 24.7292 10.0836 24.5446C10.1067 25.0061 10.1528 25.4676 10.222 25.9292C10.3374 26.6214 10.499 27.3137 10.7528 27.9599C10.499 28.0983 10.2913 28.2599 10.0836 28.3983C8.97592 36.4981 7.31442 48.8208 6.50675 54.0361H21.3217H51.8747H58.3592C57.7822 47.5285 51.8516 41.4364 49.2209 36.1058C48.344 33.9828 47.6056 31.0521 46.9825 27.1984C45.9441 29.1137 44.3288 30.3367 42.3904 30.3367C38.7212 30.2906 36.4367 26.183 36.2752 22.6062C35.9752 17.3909 39.2981 12.8911 43.6596 14.4833C42.575 12.6372 41.375 11.068 40.6135 10.0988C38.5136 15.6371 31.6137 15.4525 27.2293 13.6064C24.8755 12.8449 22.6601 12.1065 19.591 12.6141C18.7141 12.7757 18.4833 11.368 19.3602 11.2526C19.5679 11.2065 19.7756 11.1834 19.9833 11.1603C17.5834 9.40654 20.2602 4.53745 25.037 6.96046C29.7676 9.36039 35.4444 12.8449 38.652 10.8142C39.8751 9.1527 39.9904 6.93738 38.7674 5.20666C38.2136 5.87587 36.7828 6.01433 34.8444 4.69898C32.5368 3.15287 28.8677 0.891394 22.0602 4.099C18.6218 6.06048 14.6065 9.72961 11.8143 16.5371C12.0451 16.6756 12.2527 16.814 12.4835 16.9756C12.2066 17.3448 11.9297 17.714 11.6989 18.1294C11.5835 18.3371 11.4682 18.5447 11.3528 18.7524C11.2143 19.0293 11.0759 19.3063 10.9605 19.5832C8.19132 18.4986 4.38374 18.0371 2.92993 17.9448L3.18377 19.3986C4.66065 19.5601 8.51439 19.9062 10.6143 20.5524ZM31.4291 29.4367C31.3368 29.6906 31.2445 29.9214 31.1522 30.1521C32.7445 31.5598 35.029 31.8136 36.6444 30.729C37.3828 30.2213 38.1674 31.3982 37.4059 31.8828C35.2598 33.2905 32.4214 32.9674 30.4369 31.3521C30.1369 31.7675 29.883 31.9982 29.8599 32.0213C29.2138 32.6444 28.2446 31.629 28.9138 31.029C28.9138 31.029 29.6984 30.2444 30.1138 28.9983C30.3907 28.1445 31.7291 28.5829 31.4291 29.4367ZM11.4912 22.9985C11.9066 18.0832 16.4296 13.6987 21.4833 14.3218C26.537 14.8064 30.0446 19.9293 29.4215 24.9138C29.0292 29.8521 24.437 34.2366 19.4295 33.5905C14.4219 33.152 10.8451 27.8906 11.4912 22.9985Z" fill="#E8272F"/>
<path d="M10.0603 28.4213C10.2449 28.2829 10.4757 28.1444 10.7295 27.9829C10.4987 27.3136 10.3141 26.6444 10.1987 25.9521C9.96798 25.9752 9.73721 26.0214 9.52953 26.0675C8.32956 32.1135 8.76801 34.4442 7.19882 41.7594C6.345 45.9131 5.26042 50.0669 3.94507 54.0591H6.48346C7.29113 48.8438 8.95262 36.498 10.0603 28.4213Z" fill="#AD160C"/>
<path d="M62.0513 54.0358C60.2744 48.4283 56.9976 44.9438 55.6361 43.6746C55.6361 43.6746 55.6361 43.6976 55.613 43.6976C57.6207 46.9514 59.4899 50.6205 59.7206 54.0358H62.0513Z" fill="#AD160C"/>
<path d="M19.9602 11.1602C23.0524 10.791 25.3831 11.5525 27.6215 12.291C30.9676 13.5833 36.2059 14.4602 38.6289 10.791C35.4213 12.8448 29.7445 9.3603 25.0139 6.93729C20.2602 4.53735 17.5603 9.42952 19.9602 11.1602Z" fill="#AD160C"/>
<path d="M40.9367 19.2832C39.5983 19.3755 38.5599 20.5985 38.6522 22.0293C38.7445 23.46 39.8983 24.5677 41.2598 24.4753C42.6213 24.383 43.6367 23.16 43.5444 21.7293C43.5213 21.4985 43.4751 21.2677 43.4059 21.0601C43.2674 21.2447 43.0598 21.3601 42.829 21.3601C42.0444 21.3831 41.7906 20.1139 42.3905 19.6986C41.9752 19.4216 41.4675 19.2601 40.9367 19.2832Z" fill="black"/>
<path d="M20.0065 27.3137C21.7141 27.4983 23.2603 26.1368 23.4449 24.2907C23.5141 23.7369 23.4218 23.2061 23.2603 22.7215C23.0756 22.9062 22.7987 23.0215 22.5218 23.0215C21.5065 23.0677 21.0449 21.5908 21.8064 20.9677C21.4603 20.7831 21.0911 20.6447 20.6988 20.6216C18.9911 20.4601 17.445 21.7985 17.2604 23.6446C17.0527 25.4907 18.2989 27.1291 20.0065 27.3137Z" fill="black"/>
<path d="M2.92997 27.7524C3.11458 28.0755 3.52996 28.1909 3.85302 28.0063C3.8761 27.9832 5.76835 27.014 8.05291 26.3909C6.9914 32.16 7.33754 34.3984 5.86066 41.4597C4.96069 45.8904 3.7838 50.2749 2.35307 54.5209C2.19153 54.9594 2.56075 55.444 2.9992 55.4209H70.1973C70.5204 55.4209 70.7973 55.1901 70.8665 54.8671C71.0281 54.1286 74.6741 36.4753 73.8895 30.8908C73.5203 28.2832 71.9511 26.4832 69.7589 26.1602C67.5897 25.8602 64.6821 27.1294 63.0667 30.6831C61.7745 33.5907 56.6054 40.2136 54.8285 42.4289C53.4901 40.329 51.1825 37.2137 50.4902 35.5522C49.4517 33.06 48.621 29.3678 47.9287 24.2679C48.3672 21.7757 47.7672 18.7296 46.3595 16.7681C44.675 12.8221 41.7443 9.29141 40.9597 8.39144C41.1674 6.22227 40.152 4.12233 38.0521 2.48391C35.2829 0.31474 30.5523 -0.30832 26.0293 0.914723C22.1064 1.97623 14.9296 5.32229 10.5451 15.822C6.36834 13.7221 1.79924 13.699 1.56847 13.6759C1.1531 13.6759 0.806956 14.0682 0.876184 14.4836L1.89154 20.1834C1.93769 20.5065 2.21461 20.7372 2.5146 20.7603C2.88382 20.7834 3.3915 20.8295 3.99148 20.8988C2.83767 21.1295 1.6377 21.4757 0.414659 22.0064C0.0454383 22.168 -0.116096 22.6526 0.0915909 22.9987L2.92997 27.7524ZM55.6362 43.6981C57.09 41.8751 62.8591 34.5599 64.3359 31.3062C66.0205 27.5447 69.8743 26.2294 71.8127 29.0678C74.351 32.7138 70.0127 51.221 69.6204 54.0594H67.5205H62.0514H59.7438C59.513 50.621 57.6438 46.9519 55.6362 43.6981ZM44.9749 17.2297C47.9287 20.3449 46.8672 28.837 42.575 28.9755C40.9828 29.137 39.2751 27.614 38.5367 26.0217C37.2675 23.6218 37.3367 19.745 38.7213 17.6219C40.1982 15.0605 43.175 14.8297 44.9749 17.2297ZM10.2452 21.9603C10.3375 21.4757 10.4528 21.0142 10.5913 20.5526C8.51443 19.9065 4.66069 19.5604 3.16074 19.4219L2.9069 17.9681L2.65306 16.4451L2.42229 15.1528C4.10686 15.222 8.76827 15.9835 11.6759 18.1296C11.9066 17.7373 12.1836 17.345 12.4605 16.9758C12.2528 16.8143 12.022 16.6758 11.7913 16.5374C14.6066 9.72986 18.5988 6.06073 22.0371 4.09925C23.5832 3.19927 25.2447 2.57621 26.3985 2.27622C31.4522 1.0301 36.1598 1.67624 38.7444 5.18383C39.9905 6.91455 39.852 9.12988 38.629 10.7914C36.206 14.4605 30.9676 13.5836 27.6216 12.2913C25.3601 11.5529 23.0525 10.7914 19.9603 11.1606C19.7526 11.1837 19.5449 11.2067 19.3372 11.2529C18.4372 11.3914 18.668 12.7759 19.568 12.6144C22.6371 12.1067 24.8524 12.8452 27.2062 13.6067C31.5907 15.4759 38.4905 15.6374 40.5905 10.0991C41.352 11.0452 42.5519 12.6375 43.6365 14.4836C39.2751 12.8913 35.9521 17.3912 36.2521 22.6064C36.4136 26.1832 38.6982 30.2908 42.3673 30.337C44.3057 30.337 45.9442 29.0909 46.9595 27.1986C47.5826 31.0523 48.321 33.983 49.1979 36.106C51.8286 41.4367 57.7592 47.5288 58.3361 54.0363H51.8517H21.3218H6.48372H3.94533C5.2376 50.021 6.32219 45.8904 7.19908 41.7367C8.76827 34.4215 8.32982 32.0908 9.52979 26.0448C9.76055 25.9986 9.99131 25.9756 10.199 25.9294C10.1298 25.4679 10.0836 25.0064 10.0605 24.5448C8.02983 24.7064 4.89146 25.9525 3.7838 26.4832L3.04535 25.2371L2.37614 24.1064L1.70693 22.9756C5.39913 21.6603 8.37597 21.7988 10.2452 21.9603Z" fill="black"/>
<path d="M19.4524 33.5905C24.4599 34.2366 29.0521 29.829 29.4444 24.9138C30.0444 19.9293 26.5599 14.8064 21.5061 14.3218C16.4524 13.7218 11.9295 18.0832 11.5141 22.9985C10.8449 27.8906 14.4217 33.152 19.4524 33.5905ZM12.8756 23.1369C13.3602 18.5909 17.1447 15.2448 21.3446 15.6833C25.5214 16.1217 28.5444 20.1832 28.0598 24.7523C27.7137 28.9983 23.8599 32.7136 19.5908 32.2059C15.2986 31.8136 12.3218 27.3599 12.8756 23.1369Z" fill="black"/>
<path d="M29.8832 32.0214C29.9062 31.9984 30.137 31.7676 30.4601 31.3522C32.4677 32.9676 35.3061 33.2906 37.4291 31.883C38.1906 31.3984 37.406 30.2215 36.6676 30.7292C35.0522 31.8137 32.7677 31.5368 31.1754 30.1523C31.2677 29.9215 31.3831 29.6907 31.4523 29.4369C31.7523 28.5831 30.3908 28.1446 30.137 29.0215C29.7216 30.2676 28.937 31.0522 28.937 31.0522C28.2678 31.6291 29.237 32.6676 29.8832 32.0214Z" fill="black"/>
<path d="M36.5983 44.9441C30.16 44.9441 24.3217 48.4978 21.3218 54.0592H51.8748C48.9441 48.6132 43.1981 44.9441 36.5983 44.9441Z" fill="white"/>
</svg>
