<svg width="597" height="286" viewBox="0 0 597 286" fill="none" xmlns="http://www.w3.org/2000/svg">
<rect x="511" y="10" width="53" height="275" fill="white"/>
<rect x="510.619" y="10" width="53" height="176.678" transform="rotate(31.9976 510.619 10)" fill="white"/>
<rect x="593.333" y="145" width="53" height="176.678" transform="rotate(86.4179 593.333 145)" fill="white"/>
<path d="M257.167 0C308.128 0.000344699 385.589 26.4999 410.05 116.192C427.009 178.373 412.615 233.942 370.282 262.18C351.553 274.673 430.893 182.955 315.823 136.712C224.181 99.8842 166.797 223.866 193.042 160.75C201.5 140.409 217.694 119.531 242.955 99.8842C261.301 85.615 265.378 65.2305 265.378 57.0767C291.878 73.3843 287.664 13.0701 257.167 0Z" fill="white"/>
<path d="M228.686 124.346C276.154 102.511 361.184 122.307 389.723 165.114C418.261 207.92 393.8 285.383 293.916 285.383C161.417 285.383 151.224 159.977 228.686 124.346ZM284.071 149.401C271.656 148.059 259.022 148.198 247.739 151.002C236.389 153.823 225.341 159.648 218.207 170.433C212.425 179.173 209.579 188.372 210.188 197.698C210.791 206.922 214.669 214.712 219.561 220.936C228.952 232.884 243.688 241.103 255.001 246.286C272.472 254.29 293.753 256.223 312.819 254.407C331.688 252.611 350.96 246.891 363.868 237.035C370.233 232.176 371.453 223.076 366.594 216.711C361.734 210.346 352.634 209.126 346.27 213.986C339.287 219.316 326.01 224.02 310.071 225.537C294.33 227.036 278.541 225.172 267.08 219.921C256.695 215.163 247.296 209.294 242.36 203.015C240.089 200.125 239.255 197.766 239.127 195.809C239.006 193.955 239.413 190.939 242.394 186.433C244.3 183.55 247.945 180.833 254.733 179.146C261.589 177.442 270.542 177.107 280.955 178.233C301.786 180.484 325.373 188.231 342.955 197.372C350.06 201.066 358.816 198.301 362.51 191.197C366.204 184.091 363.438 175.337 356.333 171.643C335.942 161.042 308.898 152.084 284.071 149.401Z" fill="white"/>
<path d="M147 284H94V202.257L147 198.939V284ZM94 202.257L3.31152 207.935L0.24707 158.989L44.9473 186.919L67.5068 150.812L94 149.153V202.257ZM179.644 196.896L147 198.939V145.836L176.333 144L179.644 196.896ZM52.9893 153.094L51.3135 155.837L49.6377 158.579L47.9629 161.322L45.2197 159.647L34.2471 152.944L34.1709 152.897L45.3564 152.197L45.8271 152.485L46.0273 152.155L53.8613 151.665L52.9893 153.094ZM0.24707 158.989L0 158.835L0.21582 158.488L0.24707 158.989ZM0.21582 158.488L0 155.038L2.46875 154.883L0.21582 158.488ZM94 9.2373V24.293L92.5938 26.5957L90.918 29.3389L89.2432 32.082L87.5674 34.8252L85.8916 37.5674L84.2158 40.3105L92.4453 45.3379L94 46.2861V50.0625L93.5088 49.7627L90.7656 48.0879L82.5361 43.0605L80.8604 45.8037L79.1855 48.5469L81.9277 50.2227L84.6709 51.8984L87.4141 53.5732L92.9004 56.9248L94 57.5957V67.4561L93.3594 68.5049L90.6162 66.8291L87.874 65.1543L76.9014 58.4512L74.1582 56.7764L72.4834 59.5195L70.8076 62.2617L76.2939 65.6133L79.0361 67.2891L81.7793 68.9639L92.752 75.667L94 76.4287V80.1953L93.8193 80.085L91.0762 78.4092L87.7246 83.8955L86.0498 86.6387L84.374 89.3818L78.8877 86.0303L80.5635 83.2871L82.2393 80.5449L83.9141 77.8018L81.1719 76.126L78.4287 74.4502L73.4014 82.6797L70.6592 81.0039L67.916 79.3281L69.5908 76.585L71.2666 73.8428L74.6182 68.3564L69.1318 65.0049L67.4561 67.748L65.7812 70.4912L60.7539 78.7207L59.0781 81.4629L67.3076 86.4902L70.0508 88.165L75.5371 91.5166L78.2793 93.1924L81.0225 94.8672L86.5088 98.2188L89.8604 92.7324L91.5352 89.9893L93.2109 87.2471L94 85.9551V108.411L67.5068 150.812L53.8613 151.665L54.665 150.351L56.3398 147.607L58.0156 144.864L55.2725 143.188L52.5293 141.514L50.8545 144.257L49.1787 146.999L47.5029 149.742L46.0273 152.155L45.3564 152.197L43.085 150.81L40.3418 149.135L42.0166 146.392L45.3682 140.905L39.8818 137.554L38.2061 140.297L36.5312 143.04L34.8555 145.783L29.3691 142.432L31.0449 139.689L34.3965 134.203L36.0713 131.46L33.3281 129.784L30.5859 128.109L28.9102 130.852L25.5586 136.338L23.8838 139.081L20.5322 144.567L23.2754 146.242L28.7617 149.594L31.5039 151.27L34.1709 152.897L2.46875 154.883L93.6191 9L94 9.2373ZM147 145.836L94 149.153V108.411L138.566 37.084L94 9.2373V9H147V145.836ZM45.0576 110.583L42.3145 108.908L40.6387 111.65L38.9629 114.394L37.2881 117.137L32.2607 125.366L35.0039 127.041L45.9766 133.744L48.7188 135.419L56.9482 140.446L59.6914 142.121L61.3672 139.378L63.042 136.636L60.2998 134.96L54.8135 131.608L56.4893 128.865L58.1641 126.123L59.8398 123.38L62.583 125.056L65.3262 126.73L68.0693 128.406L69.7441 125.663L71.4199 122.92L68.6768 121.245L65.9346 119.569L60.4482 116.218L58.7725 118.961L56.0293 117.285L57.7051 114.543L49.4756 109.516L46.7334 107.84L45.0576 110.583ZM48.8682 116.678L51.6113 118.353L54.3535 120.028L52.6787 122.771L49.3271 128.258L43.8408 124.906L41.0986 123.231L42.7734 120.488L46.125 115.002L48.8682 116.678ZM58.4658 88.6318L55.7227 86.9561L54.0479 89.6992L49.0205 97.9287L47.3457 100.672L45.6699 103.415L48.4131 105.09L51.1562 106.766L53.8984 108.441L56.6416 110.117L59.3848 111.792L67.6143 116.819L70.3574 118.494L73.0996 120.17L76.4512 114.684L73.708 113.009L68.2217 109.657L71.5732 104.171L73.249 101.429L75.9922 103.104L78.7344 104.779L81.4775 106.455L84.8291 100.969L82.0859 99.293L79.3428 97.6182L73.8564 94.2666L72.1816 97.0098L69.4385 95.334L71.1143 92.5908L68.3711 90.916L60.1416 85.8887L58.4658 88.6318ZM62.2764 94.7266L65.0195 96.4014L67.7627 98.0771L64.4111 103.563L62.7363 106.307L54.5068 101.279L56.1826 98.5371L57.8584 95.7939L59.5332 93.0508L62.2764 94.7266ZM96.5625 81.7607L94.8867 84.5039L94 85.9551V80.1953L96.5625 81.7607ZM96.251 51.4385L104.48 56.4658L107.224 58.1406L105.548 60.8838L108.291 62.5596L104.939 68.0459L103.265 70.7881L99.9131 76.2744L97.1699 74.5986L95.4951 77.3418L94 76.4287V67.4561L95.0352 65.7617L97.7783 67.4375L99.4541 64.6943L96.7109 63.0186L98.3867 60.2754L95.6436 58.6006L94 57.5957V50.0625L96.251 51.4385ZM101.431 24.4609L104.174 26.1367L106.917 27.8115L109.66 29.4873L107.984 32.2305L110.728 33.9062L112.403 31.1631L115.146 32.8389L117.89 34.5137L120.632 36.1895L123.375 37.8652L121.699 40.6084L120.024 43.3516L111.795 38.3242L110.119 41.0674L108.444 43.8105L106.769 46.5537L109.512 48.2295L112.255 49.9043L114.997 51.5801L113.322 54.3232L111.646 57.0664L106.16 53.7148L103.417 52.04L100.675 50.3643L95.1885 47.0127L94 46.2861V38.7539L95.7959 39.8516L98.5391 41.5273L101.282 43.2021L102.958 40.46L104.634 37.7168L106.309 34.9736L103.566 33.2979L100.823 31.6221L98.0801 29.9473L96.4043 32.6895L94.7285 35.4326L94 36.625V24.293L94.2695 23.8525L97.0127 25.5283L98.6885 22.7852L101.431 24.4609ZM94 38.7539L93.0537 38.1758L94 36.625V38.7539Z" fill="white"/>
</svg>
