<svg width="191" height="189" viewBox="0 0 191 189" fill="none" xmlns="http://www.w3.org/2000/svg">
<g clip-path="url(#clip0_575_7)">
<path d="M17 0H79C88.4 0 96 7.63248 96 17.0726V76.9274C96 86.3675 88.4 94 79 94H17C7.6 94 0 86.3675 0 76.9274V17.0726C0 7.63248 7.6 0 17 0Z" fill="#5C7B4D"/>
<path d="M38.56 56.2393H23.68L20.64 65.7196C20.56 66.0812 20.24 66.3222 19.88 66.282H12.36C11.92 66.282 11.8 66.041 11.92 65.5589L24.8 28.4812C24.92 28.0794 25.04 27.7179 25.2 27.2359C25.36 26.3923 25.44 25.5085 25.44 24.6247C25.4 24.4239 25.56 24.223 25.76 24.1829H25.88H36.12C36.4 24.1829 36.6 24.3034 36.64 24.5042L51.24 65.4786C51.36 65.9205 51.24 66.1213 50.84 66.1213H42.48C42.2 66.1615 41.92 65.9606 41.84 65.6794L38.56 56.0384V56.2393ZM26 48.2453H36.16C35.92 47.4017 35.6 46.3974 35.24 45.3529C34.88 44.2683 34.52 43.1034 34.16 41.8982C33.76 40.6529 33.4 39.4478 33 38.2025C32.6 36.9572 32.24 35.7923 31.92 34.6273C31.6 33.5025 31.32 32.4581 31.04 31.494H30.96C30.6 33.2213 30.16 34.9487 29.6 36.676C29 38.6042 28.4 40.6128 27.76 42.6213C27.24 44.67 26.6 46.5581 26 48.2453Z" fill="#C7D5C6"/>
<path d="M74.8001 52.6239H62.1201C62.2801 53.8692 62.6801 55.1145 63.3601 56.1991C64.0801 57.2837 65.0801 58.1273 66.2801 58.6094C67.8801 59.2923 69.6401 59.6538 71.4001 59.6136C72.8001 59.5735 74.2001 59.453 75.5601 59.1718C76.8001 59.0111 78.0001 58.6897 79.1201 58.2478C79.3201 58.0871 79.4401 58.1675 79.4401 58.5692V64.7153C79.4401 64.876 79.4001 65.0367 79.3601 65.1974C79.2801 65.3179 79.2001 65.3982 79.0801 65.4786C77.8001 66.041 76.4801 66.4427 75.0801 66.6837C73.2001 67.0453 71.3201 67.2059 69.4001 67.1658C66.3601 67.1658 63.8001 66.6837 61.7201 65.7598C59.7601 64.9162 58.0401 63.5906 56.6801 61.9435C55.4001 60.3769 54.4801 58.6094 53.9201 56.6812C53.3601 54.7931 53.0801 52.8247 53.0801 50.8162C53.0801 48.647 53.4001 46.5179 54.0801 44.429C54.7201 42.4205 55.7201 40.5726 57.0801 38.9256C58.4001 37.3188 60.0401 36.0333 61.9201 35.1094C63.8001 34.1854 66.0401 33.8641 68.6001 33.8641C70.7201 33.8239 72.8401 34.2256 74.8001 35.1094C76.4401 35.8324 77.8801 36.9171 79.0001 38.323C80.0401 39.6888 80.8801 41.2153 81.4001 42.9025C81.9201 44.5094 82.1601 46.1564 82.1601 47.8034C82.1601 48.7675 82.1201 49.6111 82.0801 50.3743C82.0001 51.1376 81.9601 51.7 81.9201 52.0615C81.8801 52.3427 81.6401 52.5837 81.3601 52.5837C81.1201 52.5837 80.6801 52.6239 80.0401 52.6641C79.4001 52.7444 78.6401 52.7846 77.7201 52.7846C76.8001 52.7846 75.8401 52.6239 74.8001 52.6239ZM62.1201 46.7589H70.5601C71.6001 46.7589 72.3601 46.7589 72.8401 46.7188C73.1601 46.6786 73.4801 46.5982 73.7601 46.3974V45.9957C73.7601 45.4735 73.6801 44.9914 73.5201 44.5094C72.8001 42.2598 70.6801 40.7333 68.3201 40.8136C66.1201 40.6931 64.0401 41.8581 63.0001 43.8666C62.5201 44.7906 62.2401 45.7547 62.1201 46.7589Z" fill="#C7D5C6"/>
</g>
<g clip-path="url(#clip1_575_7)">
<path d="M112.469 0H172.531C181.637 0 189 7.55128 189 16.891V76.109C189 85.4487 181.637 93 172.531 93H112.469C103.362 93 96 85.4487 96 76.109V16.891C96 7.55128 103.362 0 112.469 0Z" fill="#5C7B4D"/>
<path d="M118.088 65.1794V24.2435C118.088 23.9653 118.204 23.8063 118.475 23.8063C119.134 23.8063 119.754 23.8063 120.645 23.7666C121.575 23.7268 122.544 23.7268 123.59 23.6871C124.636 23.6474 125.76 23.6474 126.961 23.6076C128.163 23.5679 129.325 23.5679 130.488 23.5679C133.665 23.5679 136.3 23.9653 138.47 24.7999C140.408 25.4756 142.19 26.5884 143.663 28.0589C144.903 29.3307 145.871 30.8807 146.491 32.5897C147.073 34.2589 147.383 35.9679 147.383 37.7563C147.383 41.1743 146.608 43.9961 145.058 46.2217C143.508 48.4474 141.338 50.1166 138.819 51.0704C136.184 52.064 133.278 52.4217 130.1 52.4217C129.17 52.4217 128.55 52.4217 128.163 52.382C127.775 52.3422 127.233 52.3422 126.496 52.3422V65.0999C126.535 65.3781 126.341 65.6166 126.07 65.6563H125.915H118.553C118.243 65.6563 118.088 65.4974 118.088 65.1397V65.1794ZM126.535 31.5166V44.8704C127.078 44.9102 127.581 44.9499 128.046 44.9499H130.1C131.611 44.9499 133.123 44.7115 134.556 44.2345C135.796 43.8768 136.881 43.1217 137.734 42.1281C138.548 41.1345 138.935 39.7833 138.935 38.0345C138.974 36.8025 138.664 35.5704 138.044 34.4974C137.385 33.464 136.455 32.6692 135.331 32.232C133.898 31.6358 132.348 31.3974 130.759 31.4371C129.751 31.4371 128.86 31.4371 128.124 31.4768C127.349 31.4371 126.806 31.4768 126.535 31.5166Z" fill="#C7D5C6"/>
<path d="M152.963 33.8614H159.744C160.131 33.8614 160.441 34.1396 160.558 34.4973C160.674 34.8152 160.751 35.1332 160.79 35.4909C160.868 35.8883 160.945 36.3255 160.984 36.7229C161.023 37.1601 161.061 37.637 161.061 38.1537C162.224 36.7627 163.619 35.6101 165.208 34.7357C166.99 33.7024 169.044 33.1857 171.098 33.1857C171.369 33.146 171.601 33.3447 171.64 33.6229V33.7819V41.5319C171.64 41.8498 171.446 41.9691 171.02 41.9691C169.625 41.9293 168.191 42.0485 166.835 42.3665C165.711 42.605 164.626 42.9627 163.58 43.4396C162.844 43.7973 162.146 44.2742 161.604 44.9101V65.1793C161.604 65.5768 161.449 65.7357 161.1 65.7357H153.466C153.156 65.7755 152.885 65.5768 152.846 65.2588V65.0998V43.0819C152.846 42.128 152.846 41.1344 152.808 40.1011C152.769 39.0678 152.769 38.0344 152.73 37.0011C152.73 36.087 152.653 35.2127 152.575 34.2985C152.536 34.0998 152.653 33.9011 152.846 33.8614C152.846 33.8216 152.924 33.8216 152.963 33.8614Z" fill="#C7D5C6"/>
</g>
<g clip-path="url(#clip2_575_7)">
<path d="M17 93H79C88.4 93 96 100.795 96 110.436V171.564C96 181.205 88.4 189 79 189H17C7.6 189 0 181.205 0 171.564V110.436C0 100.795 7.6 93 17 93Z" fill="#226936"/>
<path d="M21.6 160.323V118.108C21.6 117.82 21.72 117.656 22 117.656C22.68 117.656 23.32 117.656 24.24 117.615C25.2 117.574 26.2 117.574 27.28 117.533C28.36 117.492 29.52 117.492 30.76 117.451C32 117.41 33.2 117.41 34.4 117.41C37.68 117.41 40.4 117.82 42.64 118.682C44.64 119.379 46.48 120.528 48 122.046C49.28 123.359 50.28 124.959 50.92 126.723C51.52 128.446 51.84 130.21 51.84 132.056C51.84 135.585 51.04 138.497 49.44 140.795C47.84 143.092 45.6 144.815 43 145.8C40.28 146.826 37.28 147.195 34 147.195C33.04 147.195 32.4 147.195 32 147.154C31.6 147.113 31.04 147.113 30.28 147.113V160.282C30.32 160.569 30.12 160.815 29.84 160.856C29.8 160.856 29.76 160.856 29.68 160.856H22.08C21.76 160.856 21.6 160.692 21.6 160.323ZM30.32 125.574V139.359C30.88 139.4 31.4 139.441 31.88 139.441H34C35.56 139.441 37.12 139.195 38.6 138.702C39.88 138.333 41 137.554 41.88 136.528C42.72 135.502 43.12 134.108 43.12 132.302C43.16 131.031 42.84 129.759 42.2 128.651C41.52 127.585 40.56 126.764 39.4 126.313C37.92 125.697 36.32 125.451 34.68 125.492C33.64 125.492 32.72 125.492 31.96 125.533C31.16 125.492 30.6 125.533 30.32 125.574Z" fill="#C7D5C6"/>
<path d="M76.8 136.856C75.6 136.2 74.32 135.749 72.96 135.461C71.48 135.133 70 134.928 68.48 134.928C67.68 134.887 66.84 135.01 66.08 135.215C65.56 135.338 65.12 135.625 64.84 136.036C64.64 136.364 64.52 136.774 64.52 137.143C64.52 137.513 64.68 137.882 64.92 138.21C65.28 138.661 65.76 139.031 66.28 139.318C67.2 139.81 68.16 140.261 69.12 140.672C71.28 141.41 73.36 142.436 75.28 143.667C76.6 144.528 77.68 145.677 78.44 147.072C79.08 148.384 79.4 149.82 79.36 151.297C79.4 153.226 78.84 155.154 77.8 156.754C76.68 158.395 75.12 159.667 73.32 160.405C71.36 161.267 68.96 161.718 66.08 161.718C64.24 161.718 62.44 161.554 60.64 161.184C59.24 160.938 57.84 160.487 56.56 159.872C56.28 159.708 56.08 159.42 56.12 159.092V151.954C56.12 151.831 56.16 151.667 56.28 151.584C56.4 151.502 56.52 151.543 56.64 151.625C58.2 152.569 59.84 153.226 61.6 153.636C63.12 154.046 64.72 154.251 66.32 154.251C67.84 154.251 68.92 154.046 69.64 153.677C70.28 153.39 70.72 152.692 70.72 151.954C70.72 151.379 70.4 150.846 69.76 150.313C69.12 149.779 67.8 149.164 65.84 148.384C63.8 147.646 61.92 146.661 60.16 145.431C58.92 144.528 57.88 143.338 57.12 141.943C56.48 140.631 56.16 139.195 56.2 137.759C56.2 135.995 56.68 134.313 57.56 132.795C58.56 131.154 60.04 129.841 61.76 129.02C63.64 128.036 66 127.584 68.84 127.584C70.48 127.584 72.16 127.708 73.8 127.954C75 128.118 76.16 128.446 77.24 128.897C77.4 128.938 77.56 129.102 77.64 129.267C77.68 129.431 77.72 129.595 77.72 129.759V136.446C77.72 136.61 77.64 136.774 77.52 136.856C77.16 136.938 76.96 136.938 76.8 136.856Z" fill="#C7D5C6"/>
</g>
<g clip-path="url(#clip3_575_7)">
<path d="M112.823 93H174.177C183.479 93 191 100.714 191 110.254V170.746C191 180.286 183.479 188 174.177 188H112.823C103.521 188 96 180.286 96 170.746V110.254C96 100.714 103.521 93 112.823 93Z" fill="#1E5325"/>
<path d="M141.917 149.838H127.192L124.183 159.378C124.104 159.744 123.787 159.987 123.431 159.947H115.99C115.554 159.947 115.435 159.703 115.554 159.216L128.3 121.581C128.419 121.175 128.537 120.729 128.696 120.241C128.854 119.389 128.933 118.496 128.933 117.603C128.894 117.4 129.052 117.197 129.25 117.156H139.502C139.819 117.156 139.977 117.278 140.017 117.481L154.465 159.297C154.583 159.744 154.465 159.947 154.069 159.947H145.796C145.519 159.987 145.242 159.784 145.162 159.5L141.917 149.838ZM129.487 141.596H139.542C139.304 140.744 138.987 139.729 138.631 138.673C138.275 137.577 137.919 136.4 137.562 135.182C137.167 133.923 136.81 132.705 136.415 131.447C136.019 130.188 135.662 129.011 135.346 127.833C135.029 126.697 134.752 125.641 134.475 124.667H134.396C134.04 126.412 133.604 128.158 133.05 129.904C132.456 131.853 131.862 133.883 131.229 135.912C130.675 137.983 130.081 139.891 129.487 141.596ZM163.292 124.261C161.985 124.301 160.719 123.774 159.769 122.84C158.858 121.825 158.383 120.485 158.423 119.105C158.383 117.724 158.898 116.425 159.848 115.491C160.798 114.558 162.065 114.071 163.371 114.071C164.915 114.071 166.102 114.558 166.973 115.491C167.844 116.466 168.319 117.765 168.279 119.105C168.319 120.485 167.844 121.825 166.894 122.84C165.983 123.814 164.637 124.342 163.292 124.261ZM158.858 159.5V128.239C158.858 127.833 159.017 127.671 159.373 127.671H167.21C167.567 127.671 167.725 127.874 167.725 128.239V159.5C167.725 159.947 167.567 160.15 167.21 160.15H159.452C159.056 160.15 158.858 159.906 158.858 159.5Z" fill="#C7D5C6"/>
</g>
<defs>
<clipPath id="clip0_575_7">
<rect width="96" height="94" fill="white"/>
</clipPath>
<clipPath id="clip1_575_7">
<rect width="93" height="93" fill="white" transform="translate(96)"/>
</clipPath>
<clipPath id="clip2_575_7">
<rect width="96" height="96" fill="white" transform="translate(0 93)"/>
</clipPath>
<clipPath id="clip3_575_7">
<rect width="95" height="95" fill="white" transform="translate(96 93)"/>
</clipPath>
</defs>
</svg>
