<svg width="191" height="189" viewBox="0 0 191 189" fill="none" xmlns="http://www.w3.org/2000/svg">
<path d="M17 0H79C88.4 0 96 7.63248 96 17.0726V76.9274C96 86.3675 88.4 94 79 94H17C7.6 94 0 86.3675 0 76.9274V17.0726C0 7.63248 7.6 0 17 0Z" fill="#1C1D58"/>
<path d="M38.56 56.2393H23.68L20.64 65.7197C20.56 66.0812 20.24 66.3222 19.88 66.2821H12.36C11.92 66.2821 11.8 66.041 11.92 65.559L24.8 28.4812C24.92 28.0795 25.04 27.718 25.2 27.2359C25.36 26.3923 25.44 25.5085 25.44 24.6248C25.4 24.4239 25.56 24.2231 25.76 24.1829H36.12C36.4 24.1829 36.6 24.3034 36.64 24.5043L51.24 65.4786C51.36 65.9205 51.24 66.1214 50.84 66.1214H42.48C42.2 66.1615 41.92 65.9607 41.84 65.6795L38.56 56.0385V56.2393ZM26 48.2453H36.16C35.92 47.4017 35.6 46.3974 35.24 45.353C34.88 44.2684 34.52 43.1034 34.16 41.8983C33.76 40.653 33.4 39.4479 33 38.2026C32.6 36.9573 32.24 35.7923 31.92 34.6273C31.6 33.5026 31.32 32.4581 31.04 31.494H30.96C30.6 33.2214 30.16 34.9487 29.6 36.6761C29 38.6043 28.4 40.6128 27.76 42.6214C27.24 44.6701 26.6 46.5581 26 48.2453Z" fill="#9084FD"/>
<path d="M74.8 52.6239H62.12C62.28 53.8692 62.68 55.1145 63.36 56.1991C64.08 57.2838 65.08 58.1273 66.28 58.6094C67.88 59.2923 69.64 59.6538 71.4 59.6137C72.8 59.5735 74.2 59.453 75.56 59.1718C76.8 59.0111 78 58.6897 79.12 58.2479C79.32 58.0872 79.44 58.1675 79.44 58.5692V64.7154C79.44 64.8761 79.4 65.0367 79.36 65.1974C79.28 65.3179 79.2 65.3983 79.08 65.4786C77.8 66.041 76.48 66.4427 75.08 66.6838C73.2 67.0453 71.32 67.206 69.4 67.1658C66.36 67.1658 63.8 66.6838 61.72 65.7598C59.76 64.9162 58.04 63.5906 56.68 61.9436C55.4 60.3769 54.48 58.6094 53.92 56.6812C53.36 54.7932 53.08 52.8248 53.08 50.8162C53.08 48.647 53.4 46.518 54.08 44.4291C54.72 42.4205 55.72 40.5727 57.08 38.9256C58.4 37.3188 60.04 36.0333 61.92 35.1094C63.8 34.1855 66.04 33.8641 68.6 33.8641C70.72 33.8239 72.84 34.2256 74.8 35.1094C76.44 35.8325 77.88 36.9171 79 38.3231C80.04 39.6889 80.88 41.2154 81.4 42.9026C81.92 44.5094 82.16 46.1564 82.16 47.8034C82.16 48.7675 82.12 49.6111 82.08 50.3744C82 51.1376 81.96 51.7 81.92 52.0615C81.88 52.3427 81.64 52.5838 81.36 52.5838C81.12 52.5838 80.68 52.6239 80.04 52.6641C79.4 52.7444 78.64 52.7846 77.72 52.7846C76.8 52.7846 75.84 52.6239 74.8 52.6239ZM62.12 46.759H70.56C71.6 46.759 72.36 46.759 72.84 46.7188C73.16 46.6786 73.48 46.5983 73.76 46.3974V45.9957C73.76 45.4735 73.68 44.9915 73.52 44.5094C72.8 42.2598 70.68 40.7333 68.32 40.8137C66.12 40.6932 64.04 41.8581 63 43.8667C62.52 44.7906 62.24 45.7547 62.12 46.759Z" fill="#9084FD"/>
<path d="M112.469 0H172.531C181.637 0 189 7.55128 189 16.891V76.109C189 85.4487 181.637 93 172.531 93H112.469C103.362 93 96 85.4487 96 76.109V16.891C96 7.55128 103.362 0 112.469 0Z" fill="#1C1D58"/>
<path d="M118.088 65.1795V24.2436C118.088 23.9654 118.204 23.8064 118.475 23.8064C119.134 23.8064 119.754 23.8064 120.645 23.7667C121.575 23.7269 122.544 23.7269 123.59 23.6872C124.636 23.6474 125.76 23.6474 126.961 23.6077C128.163 23.568 129.325 23.5679 130.488 23.5679C133.665 23.5679 136.3 23.9654 138.47 24.8C140.408 25.4756 142.19 26.5885 143.663 28.059C144.903 29.3308 145.871 30.8808 146.491 32.5897C147.073 34.259 147.383 35.968 147.383 37.7564C147.383 41.1744 146.607 43.9962 145.057 46.2218C143.507 48.4474 141.338 50.1167 138.819 51.0705C136.184 52.0641 133.278 52.4218 130.1 52.4218C129.17 52.4218 128.55 52.4218 128.163 52.382C127.775 52.3423 127.232 52.3423 126.496 52.3423V65.1C126.535 65.3782 126.341 65.6167 126.07 65.6564H118.552C118.242 65.6564 118.088 65.4974 118.088 65.1397V65.1795ZM126.535 31.5167V44.8705C127.078 44.9103 127.581 44.95 128.046 44.95H130.1C131.611 44.95 133.122 44.7115 134.556 44.2346C135.796 43.8769 136.881 43.1218 137.734 42.1282C138.547 41.1346 138.935 39.7833 138.935 38.0346C138.974 36.8026 138.664 35.5705 138.044 34.4974C137.385 33.4641 136.455 32.6692 135.331 32.2321C133.898 31.6359 132.347 31.3974 130.759 31.4372C129.751 31.4372 128.86 31.4372 128.124 31.4769C127.349 31.4372 126.806 31.4769 126.535 31.5167Z" fill="#9084FD"/>
<path d="M152.962 33.8615H159.744C160.131 33.8615 160.441 34.1397 160.557 34.4974C160.674 34.8154 160.751 35.1333 160.79 35.491C160.867 35.8885 160.945 36.3256 160.984 36.7231C161.022 37.1603 161.061 37.6372 161.061 38.1538C162.224 36.7628 163.619 35.6103 165.208 34.7359C166.99 33.7026 169.044 33.1859 171.098 33.1859C171.369 33.1462 171.601 33.3449 171.64 33.6231V41.5321C171.64 41.85 171.446 41.9692 171.02 41.9692C169.625 41.9295 168.191 42.0487 166.835 42.3667C165.711 42.6051 164.626 42.9628 163.58 43.4397C162.844 43.7974 162.146 44.2744 161.604 44.9103V65.1795C161.604 65.5769 161.449 65.7359 161.1 65.7359H153.466C153.156 65.7756 152.885 65.5769 152.846 65.259V43.0821C152.846 42.1282 152.846 41.1346 152.807 40.1013C152.769 39.068 152.769 38.0346 152.73 37.0013C152.73 36.0872 152.652 35.2128 152.575 34.2987C152.536 34.1 152.653 33.9013 152.846 33.8615C152.846 33.8218 152.924 33.8218 152.962 33.8615Z" fill="#9084FD"/>
<path d="M17 93H79C88.4 93 96 100.795 96 110.436V171.564C96 181.205 88.4 189 79 189H17C7.6 189 0 181.205 0 171.564V110.436C0 100.795 7.6 93 17 93Z" fill="#192A6D"/>
<path d="M21.6 160.323V118.108C21.6 117.821 21.72 117.656 22 117.656C22.68 117.656 23.32 117.656 24.24 117.615C25.2 117.574 26.2 117.574 27.28 117.533C28.36 117.492 29.52 117.492 30.76 117.451C32 117.41 33.2 117.41 34.4 117.41C37.68 117.41 40.4 117.821 42.64 118.682C44.64 119.379 46.48 120.528 48 122.046C49.28 123.359 50.28 124.959 50.92 126.723C51.52 128.446 51.84 130.21 51.84 132.056C51.84 135.585 51.04 138.497 49.44 140.795C47.84 143.092 45.6 144.815 43 145.8C40.28 146.826 37.28 147.195 34 147.195C33.04 147.195 32.4 147.195 32 147.154C31.6 147.113 31.04 147.113 30.28 147.113V160.282C30.32 160.569 30.12 160.815 29.84 160.856C29.8 160.856 29.76 160.856 29.68 160.856H22.08C21.76 160.856 21.6 160.692 21.6 160.323ZM30.32 125.574V139.359C30.88 139.4 31.4 139.441 31.88 139.441H34C35.56 139.441 37.12 139.195 38.6 138.703C39.88 138.333 41 137.554 41.88 136.528C42.72 135.503 43.12 134.108 43.12 132.303C43.16 131.031 42.84 129.759 42.2 128.651C41.52 127.585 40.56 126.764 39.4 126.313C37.92 125.697 36.32 125.451 34.68 125.492C33.64 125.492 32.72 125.492 31.96 125.533C31.16 125.492 30.6 125.533 30.32 125.574Z" fill="#4AACF3"/>
<path d="M76.8 136.856C75.6 136.2 74.32 135.749 72.96 135.462C71.48 135.133 70 134.928 68.48 134.928C67.68 134.887 66.84 135.01 66.08 135.215C65.56 135.338 65.12 135.626 64.84 136.036C64.64 136.364 64.52 136.774 64.52 137.144C64.52 137.513 64.68 137.882 64.92 138.21C65.28 138.662 65.76 139.031 66.28 139.318C67.2 139.81 68.16 140.262 69.12 140.672C71.28 141.41 73.36 142.436 75.28 143.667C76.6 144.528 77.68 145.677 78.44 147.072C79.08 148.385 79.4 149.821 79.36 151.297C79.4 153.226 78.84 155.154 77.8 156.754C76.68 158.395 75.12 159.667 73.32 160.405C71.36 161.267 68.96 161.718 66.08 161.718C64.24 161.718 62.44 161.554 60.64 161.185C59.24 160.938 57.84 160.487 56.56 159.872C56.28 159.708 56.08 159.421 56.12 159.092V151.954C56.12 151.831 56.16 151.667 56.28 151.585C56.4 151.503 56.52 151.544 56.64 151.626C58.2 152.569 59.84 153.226 61.6 153.636C63.12 154.046 64.72 154.251 66.32 154.251C67.84 154.251 68.92 154.046 69.64 153.677C70.28 153.39 70.72 152.692 70.72 151.954C70.72 151.379 70.4 150.846 69.76 150.313C69.12 149.779 67.8 149.164 65.84 148.385C63.8 147.646 61.92 146.662 60.16 145.431C58.92 144.528 57.88 143.338 57.12 141.944C56.48 140.631 56.16 139.195 56.2 137.759C56.2 135.995 56.68 134.313 57.56 132.795C58.56 131.154 60.04 129.841 61.76 129.021C63.64 128.036 66 127.585 68.84 127.585C70.48 127.585 72.16 127.708 73.8 127.954C75 128.118 76.16 128.446 77.24 128.897C77.4 128.938 77.56 129.103 77.64 129.267C77.68 129.431 77.72 129.595 77.72 129.759V136.446C77.72 136.61 77.64 136.774 77.52 136.856C77.16 136.938 76.96 136.938 76.8 136.856Z" fill="#4AACF3"/>
<path d="M112.823 93H174.177C183.479 93 191 100.714 191 110.254V170.746C191 180.286 183.479 188 174.177 188H112.823C103.521 188 96 180.286 96 170.746V110.254C96 100.714 103.521 93 112.823 93Z" fill="#361300"/>
<path d="M141.917 149.838H127.192L124.183 159.378C124.104 159.744 123.788 159.987 123.431 159.947H115.99C115.554 159.947 115.435 159.703 115.554 159.216L128.3 121.581C128.419 121.175 128.537 120.729 128.696 120.241C128.854 119.389 128.933 118.496 128.933 117.603C128.894 117.4 129.052 117.197 129.25 117.156H139.502C139.819 117.156 139.977 117.278 140.017 117.481L154.465 159.297C154.583 159.744 154.465 159.947 154.069 159.947H145.796C145.519 159.987 145.242 159.784 145.163 159.5L141.917 149.838ZM129.488 141.596H139.542C139.304 140.744 138.988 139.729 138.631 138.673C138.275 137.577 137.919 136.4 137.562 135.182C137.167 133.923 136.81 132.705 136.415 131.447C136.019 130.188 135.662 129.011 135.346 127.833C135.029 126.697 134.752 125.641 134.475 124.667H134.396C134.04 126.412 133.604 128.158 133.05 129.904C132.456 131.853 131.863 133.882 131.229 135.912C130.675 137.983 130.081 139.891 129.488 141.596ZM163.292 124.261C161.985 124.301 160.719 123.774 159.769 122.84C158.858 121.825 158.383 120.485 158.423 119.105C158.383 117.724 158.898 116.425 159.848 115.491C160.798 114.558 162.065 114.071 163.371 114.071C164.915 114.071 166.102 114.558 166.973 115.491C167.844 116.466 168.319 117.765 168.279 119.105C168.319 120.485 167.844 121.825 166.894 122.84C165.983 123.814 164.638 124.342 163.292 124.261ZM158.858 159.5V128.239C158.858 127.833 159.017 127.671 159.373 127.671H167.21C167.567 127.671 167.725 127.874 167.725 128.239V159.5C167.725 159.947 167.567 160.15 167.21 160.15H159.452C159.056 160.15 158.858 159.906 158.858 159.5Z" fill="#FF9500"/>
</svg>
