<svg width="55" height="55" viewBox="0 0 55 55" fill="none" xmlns="http://www.w3.org/2000/svg">
<path d="M27.5 0C12.3371 0 0 12.3371 0 27.5C0 42.6629 12.3371 55 27.5 55C42.6629 55 55 42.6629 55 27.5C55 12.3371 42.6629 0 27.5 0ZM27.5 4.21277C40.3862 4.21277 50.7872 14.6139 50.7872 27.5C50.7872 40.3862 40.3862 50.7872 27.5 50.7872C14.6139 50.7872 4.21277 40.3862 4.21277 27.5C4.21277 14.6139 14.6139 4.21277 27.5 4.21277ZM26.6397 8.5126C25.6769 8.5126 24.8472 8.86085 24.1506 9.55736C23.4747 10.2539 23.1366 11.0734 23.1366 12.0157C23.1366 12.9785 23.4748 13.798 24.1507 14.4739C24.847 15.1498 25.6767 15.488 26.6395 15.488C27.6024 15.488 28.4218 15.1498 29.0977 14.4739C29.7737 13.7979 30.1118 12.9784 30.1118 12.0157C30.1118 11.0734 29.7635 10.2539 29.0671 9.55736C28.3911 8.86085 27.582 8.5126 26.6397 8.5126ZM19.2958 18.1614V21.4492H24.7039V43.2304H19.2956V46.4874H35.7044V43.2302H30.3577V18.1614H19.2956H19.2958Z" fill="white"/>
</svg>
