<svg width="226" height="184" viewBox="0 0 226 184" fill="none" xmlns="http://www.w3.org/2000/svg">
<path d="M225.331 102.463C224.005 93.1261 220.774 84.2718 215.723 76.1486C211.319 69.0592 205.667 62.7541 198.921 57.3951L198.939 57.3783L128.092 2.92621C128.041 2.8812 127.988 2.83881 127.933 2.79919C125.577 0.993547 122.388 0 118.956 0C115.52 0 112.206 0.99576 109.63 2.80494C106.86 4.74114 105.277 7.3102 105.166 10.0448C105.065 12.5961 106.281 15.051 108.6 16.9646C113.159 20.5649 117.709 24.2434 122.265 27.9264C126.686 31.5023 131.241 35.1848 135.775 38.77L48.9987 38.7111C39.0749 38.7111 32.3177 43.3744 30.9277 51.1816C30.3169 54.6013 31.3947 58.3612 33.8041 61.241C36.3604 64.2938 40.0718 65.9777 44.2542 65.9777L50.8694 65.9821C60.0082 65.9821 69.1872 65.9595 78.3539 65.9374L87.0955 65.9171L8.33859 124.223L8.02592 124.452C3.6268 127.826 0.746829 132.557 0.12546 137.43C-0.345543 141.122 0.515087 144.495 2.61536 147.19C5.11853 150.402 9.02674 152.168 13.6209 152.168C18.1341 152.168 22.7393 150.457 26.594 147.341L69.124 112.512C68.9422 114.212 68.7215 116.707 68.7468 118.518C68.7945 121.386 69.7144 127.139 71.1708 131.81C74.1799 141.409 79.2486 150.192 86.2353 157.904C93.5051 165.929 102.359 172.292 112.55 176.811C123.323 181.58 134.904 184 146.973 184H147.085C159.192 183.971 170.81 181.512 181.618 176.689C191.826 172.116 200.676 165.728 207.918 157.704C214.896 149.952 219.958 141.155 222.961 131.564C224.447 126.816 225.398 121.917 225.798 116.958C226.169 112.165 226.01 107.288 225.331 102.463ZM147.855 148.471C121.258 148.471 99.6887 129.163 99.6887 105.345C99.6887 81.5288 121.258 62.2212 147.855 62.2212C174.453 62.2212 196.02 81.5288 196.02 105.345C196.021 129.163 174.453 148.471 147.855 148.471ZM175.632 101.555C176.024 108.664 173.187 115.265 168.204 120.151C163.135 125.129 155.903 128.256 147.815 128.256C139.73 128.256 132.496 125.129 127.426 120.151C122.445 115.265 119.613 108.665 120.003 101.561C120.385 94.6556 123.751 88.5602 128.821 84.2443C133.807 80.0006 140.501 77.4117 147.814 77.4117C155.128 77.4117 161.82 80.0015 166.806 84.2443C171.879 88.5602 175.246 94.6511 175.632 101.555Z" fill="#E07000"/>
<path d="M175.632 101.555C176.024 108.664 173.187 115.265 168.204 120.151C163.135 125.129 155.903 128.256 147.815 128.256C139.73 128.256 132.496 125.129 127.426 120.151C122.445 115.265 119.613 108.665 120.003 101.561C120.385 94.6556 123.751 88.5602 128.821 84.2443C133.807 80.0006 140.501 77.4117 147.814 77.4117C155.128 77.4117 161.82 80.0015 166.806 84.2443C171.879 88.5602 175.246 94.6511 175.632 101.555Z" fill="#3E4EBA"/>
</svg>
