<svg width="226" height="184" viewBox="0 0 226 184" fill="none" xmlns="http://www.w3.org/2000/svg">
<g clip-path="url(#clip0_162_5)">
<path d="M225.334 102.463C224.008 93.1266 220.777 84.2723 215.726 76.1491C211.322 69.0597 205.67 62.7546 198.924 57.3956L198.943 57.3788L128.095 2.92669C128.044 2.88169 127.991 2.8393 127.936 2.79968C125.58 0.994035 122.391 0.000488281 118.959 0.000488281C115.523 0.000488281 112.209 0.996248 109.633 2.80543C106.863 4.74163 105.28 7.31069 105.169 10.0453C105.068 12.5966 106.284 15.0515 108.603 16.9651C113.163 20.5654 117.712 24.2439 122.268 27.9269C126.689 31.5028 131.245 35.1853 135.778 38.7705L49.002 38.7116C39.0782 38.7116 32.321 43.3749 30.931 51.1821C30.3202 54.6017 31.398 58.3617 33.8074 61.2415C36.3637 64.2942 40.0751 65.9782 44.2575 65.9782L50.8727 65.9826C60.0115 65.9826 69.1905 65.96 78.3572 65.9379L87.0988 65.9175L8.34189 124.224L8.02921 124.453C3.63009 127.827 0.750125 132.557 0.128756 137.43C-0.342247 141.122 0.518383 144.496 2.61866 147.19C5.12182 150.402 9.03004 152.169 13.6242 152.169C18.1374 152.169 22.7426 150.458 26.5973 147.341L69.1273 112.512C68.9455 114.213 68.7248 116.708 68.7501 118.519C68.7978 121.386 69.7177 127.14 71.1741 131.81C74.1832 141.409 79.2519 150.192 86.2386 157.905C93.5084 165.929 102.362 172.292 112.553 176.812C123.326 181.58 134.908 184 146.976 184H147.088C159.195 183.971 170.813 181.512 181.622 176.69C191.829 172.116 200.679 165.728 207.921 157.705C214.899 149.953 219.961 141.155 222.964 131.564C224.45 126.816 225.402 121.917 225.802 116.958C226.173 112.165 226.013 107.288 225.334 102.463ZM147.859 148.471C121.261 148.471 99.692 129.164 99.692 105.345C99.692 81.5293 121.261 62.2217 147.859 62.2217C174.457 62.2217 196.023 81.5293 196.023 105.345C196.024 129.164 174.457 148.471 147.859 148.471ZM175.635 101.556C176.028 108.664 173.19 115.265 168.207 120.151C163.138 125.129 155.906 128.256 147.818 128.256C139.733 128.256 132.499 125.129 127.429 120.151C122.448 115.265 119.617 108.665 120.007 101.561C120.389 94.6561 123.755 88.5607 128.825 84.2448C133.81 80.0011 140.505 77.4122 147.817 77.4122C155.131 77.4122 161.824 80.002 166.81 84.2448C171.882 88.5607 175.249 94.6516 175.635 101.556Z" fill="#5C7B4D"/>
</g>
<defs>
<clipPath id="clip0_162_5">
<rect width="226" height="184" fill="white"/>
</clipPath>
</defs>
</svg>
