<svg width="37" height="37" viewBox="0 0 37 37" fill="none" xmlns="http://www.w3.org/2000/svg">
<path d="M18.5 0C28.7173 0 37 8.28273 37 18.5C37 19.001 36.9795 19.4973 36.9404 19.9883V17.7656L28.4736 9.91211L25.6855 13.7539L31.3301 18.9219L25.6855 23.9883L28.6104 27.8984L36.9277 20.123C36.1057 29.5801 28.1703 37 18.5 37C8.28273 37 0 28.7173 0 18.5C1.03081e-06 8.28273 8.28273 1.03088e-06 18.5 0ZM19.3506 6.88574L12.041 32.998H17.6504L24.9951 6.88574H19.3506ZM0.12207 17.7656V20.1123L8.45215 27.8984L11.376 23.9883L5.73242 18.9219L11.376 13.7539L8.58789 9.91211L0.12207 17.7656Z" fill="#D9D9D9"/>
</svg>
