<svg width="101" height="101" viewBox="0 0 101 101" fill="none" xmlns="http://www.w3.org/2000/svg">
<g clip-path="url(#clip0_798_368)">
<path d="M98.4631 62.8431L91.1292 61.7765C90.6697 61.7414 90.2738 61.4526 90.0979 61.0269L87.72 55.2892C87.5423 54.8651 87.6163 54.3792 87.9173 54.0309L92.3051 48.1366C93.002 47.3197 92.9562 46.102 92.1958 45.3417L88.7235 41.871C87.9648 41.1108 86.7451 41.0614 85.9304 41.7619L80.0344 46.1477C79.6876 46.4472 79.1984 46.5245 78.7758 46.3486L73.0366 43.9691C72.6122 43.795 72.3221 43.3919 72.285 42.9378L71.2219 35.6057C71.1375 34.5322 70.2435 33.705 69.17 33.705H64.2594C63.1843 33.705 62.2901 34.5322 62.2075 35.6057L61.1409 42.9378C61.1073 43.3955 60.8169 43.795 60.3928 43.9691L54.6518 46.3486C54.2275 46.5245 53.7418 46.4472 53.3917 46.1477L47.4989 41.7619C46.6842 41.0632 45.4663 41.1106 44.7043 41.871L41.2336 45.3417C40.4733 46.102 40.4276 47.3199 41.1243 48.1366L45.5103 54.0325C45.8078 54.3793 45.8871 54.8667 45.7093 55.2892L43.3315 61.0269C43.1591 61.4528 42.7579 61.7414 42.302 61.7785L34.9647 62.8433C33.8945 62.928 33.0674 63.822 33.0674 64.8973V69.8058C33.0674 70.8793 33.8947 71.7771 34.9647 71.858L42.302 72.9228C42.7579 72.9599 43.1591 73.2501 43.3315 73.6744L45.7093 79.4121C45.8871 79.838 45.808 80.3254 45.5103 80.6722L41.1243 86.5683C40.4274 87.3849 40.4731 88.5991 41.2336 89.3631L44.7043 92.8338C45.4663 93.5941 46.6842 93.6398 47.4989 92.9411L53.3917 88.5534C53.7418 88.2578 54.2275 88.1786 54.6518 88.3565L60.3928 90.7324C60.8171 90.9103 61.1073 91.308 61.1428 91.7672L62.2077 99.0994C62.2921 100.171 63.1845 101 64.2596 101H69.1702C70.2454 101 71.1377 100.171 71.2221 99.0994L72.2852 91.7672C72.3223 91.308 72.6124 90.9103 73.0368 90.7324L78.7778 88.3565C79.2003 88.1786 79.6895 88.2578 80.0361 88.5534L85.9306 92.9411C86.7453 93.6398 87.9652 93.5941 88.7237 92.8338L92.196 89.3631C92.9582 88.5991 93.0022 87.3849 92.3053 86.5683L87.9175 80.6722C87.6218 80.3254 87.5427 79.838 87.7202 79.4121L90.0981 73.6744C90.274 73.2501 90.6699 72.9599 91.1294 72.9228L98.4633 71.858C99.5353 71.7771 100.362 70.8793 100.362 69.8058V64.8973C100.362 63.8218 99.5351 62.9278 98.4631 62.8431ZM74.7822 75.4202C72.626 77.5728 69.7627 78.7591 66.7144 78.7591C63.6678 78.7591 60.8008 77.5728 58.6466 75.4202C56.4925 73.2625 55.3043 70.399 55.3043 67.3506C55.3043 64.3041 56.4923 61.4388 58.6466 59.2845C60.8008 57.1266 63.6678 55.944 66.7144 55.944C69.7629 55.944 72.6262 57.1266 74.7822 59.2845C76.9363 61.4386 78.1227 64.3041 78.1227 67.3506C78.1227 70.399 76.9365 73.2625 74.7822 75.4202Z" fill="#88639E"/>
<path d="M36.958 49.7417C37.7534 49.4567 38.1917 48.6082 37.9684 47.7951L36.8049 42.1032C36.7118 41.7546 36.8191 41.3834 37.0849 41.1405L40.6875 37.8618C40.9515 37.6207 41.3353 37.5485 41.6679 37.6752L47.1837 39.3452C47.9706 39.6427 48.8575 39.2872 49.2167 38.5234L50.8534 35.0405C51.2158 34.2749 50.9256 33.3667 50.1933 32.9512L45.3921 29.7674C45.0804 29.5879 44.892 29.2482 44.9116 28.8892L45.1404 24.0246C45.1597 23.6638 45.3743 23.3452 45.7002 23.1973L50.8307 20.4604C51.5997 20.1172 51.9711 19.2338 51.6861 18.4453L50.3835 14.8214C50.0967 14.0276 49.2482 13.5877 48.4353 13.8112L42.7416 14.9709C42.3931 15.0695 42.0252 14.9604 41.7808 14.6927L38.5034 11.0923C38.2588 10.8246 38.185 10.4482 38.315 10.1103L39.9854 4.59787C40.2827 3.80763 39.9274 2.9223 39.1619 2.56485L35.6805 0.926366C34.9167 0.567146 34.0049 0.854167 33.5879 1.588L30.4058 6.38944C30.2279 6.70112 29.8884 6.88911 29.5292 6.87175L24.6646 6.64115C24.3056 6.62537 23.9817 6.40345 23.8357 6.07954L21.1024 0.951025C20.7556 0.182083 19.8756 -0.189565 19.0836 0.0956809L15.4616 1.3998C14.6678 1.68505 14.2279 2.53171 14.4532 3.34465L15.6147 9.0401C15.7097 9.38492 15.6024 9.75814 15.3349 9.9992L11.7321 13.2797C11.4646 13.5208 11.0862 13.5948 10.7483 13.4681L5.23592 11.7961C4.44923 11.497 3.5639 11.8561 3.2031 12.6197L1.56619 16.1012C1.20717 16.865 1.49399 17.7768 2.22624 18.192L7.02749 21.3759C7.34075 21.5538 7.52736 21.8918 7.50803 22.2508L7.2792 27.1153C7.26519 27.4779 7.04504 27.7947 6.71956 27.9425L1.58907 30.6791C0.819737 31.0242 0.448483 31.9059 0.733729 32.6944L2.03785 36.3182C2.3229 37.112 3.17134 37.5519 3.98269 37.3303L9.67992 36.1653C10.0249 36.0702 10.398 36.1793 10.639 36.4468L13.916 40.0479C14.1606 40.3154 14.2312 40.6955 14.1042 41.0316L12.4341 46.544C12.1384 47.3325 12.4941 48.2178 13.2577 48.5769L16.7391 50.2136C17.5047 50.5744 18.4144 50.284 18.8317 49.5535L22.012 44.7505C22.1915 44.4408 22.5294 44.2506 22.8902 44.2715L27.755 44.5004C28.1158 44.5181 28.4361 44.7327 28.5857 45.0618L31.3172 50.1885C31.6658 50.9579 32.544 51.3326 33.3358 51.0474L36.958 49.7417ZM29.2406 33.9881C26.9929 34.7959 24.5626 34.6832 22.3994 33.6659C20.2364 32.6486 18.603 30.85 17.7917 28.6006C16.9839 26.3513 17.0965 23.9226 18.114 21.7614C19.1311 19.5966 20.9316 17.9632 23.1792 17.1538C25.4284 16.3441 27.8572 16.4567 30.0184 17.4775C32.1796 18.4913 33.8166 20.2902 34.6277 22.5394C35.4357 24.7888 35.3213 27.2158 34.3058 29.379C33.2849 31.54 31.4878 33.1767 29.2406 33.9881Z" fill="#88639E"/>
</g>
<defs>
<clipPath id="clip0_798_368">
<rect width="101" height="101" fill="white"/>
</clipPath>
</defs>
</svg>
