<svg width="101" height="101" viewBox="0 0 101 101" fill="none" xmlns="http://www.w3.org/2000/svg">
<g clip-path="url(#clip0_798_354)">
<path d="M35.7789 72.8326C39.5932 76.5221 44.7992 78.7875 50.4876 78.7875C50.7111 78.7875 50.9376 78.7845 51.1626 78.7768C56.8879 78.5981 62.0261 76.1522 65.7157 72.3349C69.4052 68.5235 71.6706 63.3161 71.6706 57.6278C71.6706 57.4043 71.6676 57.1792 71.6583 56.9543L69.883 57.0097L71.6583 56.9527C71.4796 51.2275 69.0353 46.0909 65.2194 42.4012C61.4051 38.7118 56.1992 36.4462 50.5093 36.4478C50.2842 36.4478 50.0593 36.4509 49.8342 36.457C44.1104 36.6357 38.9724 39.0816 35.2827 42.8989C31.5933 46.7103 29.3279 51.9177 29.3279 57.6075C29.3279 57.831 29.3324 58.0576 29.3401 58.2809C29.5188 64.0066 31.9632 69.1432 35.7789 72.8326ZM63.1574 69.8644C61.5347 71.5427 59.5804 72.8957 57.3982 73.8251C58.3044 72.5196 59.0779 70.9785 59.7177 69.2524H63.7245C63.5397 69.4608 63.3515 69.6655 63.1574 69.8644ZM65.4105 66.9902H60.4389C61.1248 64.4936 61.5424 61.7072 61.627 58.7482H68.0736C67.8856 61.7595 66.9362 64.5692 65.4105 66.9902ZM65.4137 48.2436C66.9332 50.654 67.8795 53.459 68.0736 56.4858H61.6209C61.5347 53.5314 61.1277 50.7404 60.4434 48.2436H65.4137ZM62.7475 44.958C63.0866 45.2847 63.4071 45.6299 63.7184 45.9812H59.7131C59.374 45.0643 59.0041 44.1904 58.5881 43.386C58.2244 42.6817 57.8314 42.0221 57.4106 41.4133C59.3985 42.2641 61.2078 43.4692 62.7475 44.958ZM51.6311 40.0433C52.1212 40.0727 52.6066 40.1218 53.0858 40.1913C53.2846 40.3223 53.4835 40.4625 53.6837 40.6243C55.0369 41.7278 56.3115 43.5878 57.2962 45.9812H51.6311V40.0433ZM51.6311 48.2436H58.0947C58.8205 50.6771 59.2736 53.4834 59.3661 56.4858H51.6313L51.6311 48.2436ZM51.6311 58.7482H59.3582C59.2659 61.7534 58.8096 64.5583 58.0837 66.9902H51.6311V58.7482ZM51.6311 69.2524H57.2901C57.065 69.7981 56.8309 70.3236 56.5796 70.8104C55.7274 72.4625 54.7257 73.7588 53.6837 74.6094C53.488 74.7696 53.2923 74.9067 53.0966 75.0363C52.6141 75.1071 52.1241 75.158 51.6309 75.1903V69.2524H51.6311ZM35.5848 66.9902C34.0668 64.583 33.1189 61.7765 32.9262 58.7482H39.379C39.4654 61.7027 39.8721 64.4936 40.5564 66.9902H35.5848ZM38.251 70.2759C37.9121 69.949 37.5915 69.6055 37.2801 69.2524H41.2855C41.626 70.1711 41.9961 71.0448 42.409 71.8492C42.7757 72.5535 43.1673 73.2131 43.5896 73.8205C41.5982 72.9697 39.792 71.7646 38.251 70.2759ZM49.3689 75.1921C48.8787 75.1613 48.3916 75.1136 47.9141 75.0426C47.7136 74.913 47.5164 74.7713 47.3162 74.6096C45.9615 73.5092 44.6884 71.6474 43.7036 69.2524H49.3689V75.1921ZM49.3689 66.9902H42.9053C42.1778 64.5583 41.7247 61.7504 41.6337 58.7482H49.3687V66.9902H49.3689ZM49.3689 56.4858H41.6416C41.7341 53.4822 42.1872 50.6787 42.9146 48.2436H49.3689V56.4858ZM44.4201 44.4248C45.2725 42.7727 46.2726 41.4764 47.316 40.6243C47.5116 40.4655 47.7073 40.3268 47.9046 40.199C48.3855 40.1266 48.8755 40.0755 49.3687 40.0447V45.9812H43.7095C43.933 45.4389 44.169 44.9103 44.4201 44.4248ZM37.8411 45.3695C39.4638 43.6927 41.4197 42.3381 43.6018 41.4088C42.6956 42.7141 41.919 44.2553 41.2808 45.9812H37.2753C37.4588 45.7733 37.6468 45.5683 37.8411 45.3695ZM35.5879 48.2436H40.5596C39.8753 50.7434 39.4561 53.5298 39.3715 56.4858H32.9248C33.1128 53.4759 34.0623 50.6665 35.5879 48.2436Z" fill="#637B9E"/>
<path d="M91.5312 0H9.46875C4.23963 0 0 4.23963 0 9.46875V91.5312C0 96.7604 4.23963 101 9.46875 101H91.5312C96.7602 101 101 96.7604 101 91.5312V9.46875C101 4.23963 96.7602 0 91.5312 0ZM87.7169 6.9043C89.7866 6.9043 91.465 8.58263 91.465 10.6523C91.465 12.7221 89.7866 14.4004 87.7169 14.4004C85.6472 14.4004 83.9689 12.7221 83.9689 10.6523C83.9689 8.58263 85.6472 6.9043 87.7169 6.9043ZM73.8097 6.9043C75.8794 6.9043 77.5577 8.58263 77.5577 10.6523C77.5577 12.7221 75.8794 14.4004 73.8097 14.4004C71.74 14.4004 70.0616 12.7221 70.0616 10.6523C70.0616 8.58263 71.74 6.9043 73.8097 6.9043ZM59.9025 6.9043C61.9722 6.9043 63.6505 8.58263 63.6505 10.6523C63.6505 12.7221 61.9722 14.4004 59.9025 14.4004C57.8328 14.4004 56.1544 12.7221 56.1544 10.6523C56.1544 8.58263 57.8328 6.9043 59.9025 6.9043ZM93.1094 91.5312C93.1094 92.4004 92.402 93.1094 91.5312 93.1094H9.46875C8.59802 93.1094 7.89062 92.4004 7.89062 91.5312V20.5156H93.1094V91.5312Z" fill="#637B9E"/>
</g>
<defs>
<clipPath id="clip0_798_354">
<rect width="101" height="101" fill="white"/>
</clipPath>
</defs>
</svg>
