<svg width="35" height="26" viewBox="0 0 35 26" fill="none" xmlns="http://www.w3.org/2000/svg">
<path d="M10.5112 8.15237C9.97541 8.17511 9.59458 8.35336 9.37514 8.68803C8.77878 9.5835 9.59252 10.4683 10.1574 11.0917C11.7598 12.8533 15.6868 17.0875 16.4775 18.0193C17.0769 18.6832 17.9301 18.6832 18.5294 18.0193C19.3462 17.0634 23.4709 12.6365 24.9941 10.9228C25.5226 10.3267 26.1762 9.51351 25.6257 8.68803C25.401 8.35336 25.0242 8.17511 24.4884 8.15237H21.2358V1.56603C21.2358 0.706043 20.5315 0 19.6724 0H15.3286C14.4691 0 13.7651 0.704948 13.7651 1.56603V8.15237H10.5112ZM0.0522224 17.0669C-0.127016 16.3245 0.174791 15.7431 0.65734 15.3999C0.832048 15.2765 1.02851 15.1873 1.23634 15.1371C1.44409 15.0866 1.66092 15.0746 1.86921 15.1045C2.45608 15.1888 2.99092 15.5684 3.16996 16.3109C3.28096 16.7696 3.38488 17.2299 3.48168 17.6918C3.56686 18.0957 3.64914 18.5002 3.72852 18.9053C4.04954 20.5288 4.28688 21.5465 4.88544 22.0538C5.51906 22.5909 6.71733 22.7762 9.01352 22.7762H26.3971C28.5171 22.7762 29.6231 22.5732 30.2051 22.0462C30.7661 21.5382 30.9854 20.5461 31.2691 19.024C31.3484 18.594 31.431 18.1647 31.5171 17.736C31.6108 17.2712 31.7138 16.7933 31.8306 16.3109C32.0096 15.5686 32.5441 15.1894 33.131 15.1045C33.3374 15.0748 33.553 15.0869 33.7607 15.1369C33.9706 15.1875 34.1707 15.2768 34.3431 15.3998C34.825 15.7426 35.1263 16.3225 34.9484 17.0634L34.9476 17.0666C34.8442 17.4982 34.749 17.9317 34.6618 18.3669C34.5892 18.7285 34.5053 19.1785 34.425 19.6094L34.4245 19.6126C34.0058 21.8589 33.6629 23.4002 32.5134 24.4825C31.3811 25.5489 29.6073 26 26.3971 26H9.01366C5.65749 26 3.81329 25.5952 2.62691 24.5428C1.41128 23.4642 1.04282 21.8984 0.572916 19.5221C0.477896 19.0408 0.386431 18.5813 0.324224 18.2832C0.236656 17.8648 0.14649 17.4558 0.0522224 17.0669Z" fill="#A0D2A6"/>
</svg>
