<svg width="188" height="171" viewBox="0 0 188 171" fill="none" xmlns="http://www.w3.org/2000/svg">
<path d="M173.25 31.3031C177.868 31.342 182.477 31.206 187.095 31.3873C186.908 77.9212 187.064 124.462 187.017 171.002H25.7183C21.2019 170.192 16.8177 167.324 16.6078 163.218C16.4679 151.672 16.5845 140.12 16.5534 128.567C21.1397 126.275 25.7261 123.969 30.3046 121.671C77.9558 121.658 125.607 121.709 173.258 121.645C173.243 91.533 173.258 61.4148 173.25 31.3031Z" fill="#226936"/>
<path d="M30.2976 0L0 18.5416L0.161694 18.6509L6.10886 18.1225L29.4757 4.62698L30.2976 0Z" fill="#6E926C"/>
<path d="M29.9925 0.286625L30.2889 0.00195312C30.219 46.5959 30.1879 93.1899 30.3045 139.784C25.1535 142.888 3.44068 155.969 0.0114048 157.997C0.0036314 111.512 0.0191785 65.0268 0.00363159 18.5416C6.91322 12.1777 24.0825 6.87086 29.9925 0.286625Z" fill="#6E926C"/>
<path d="M30.2891 0.00195312H163.689C168.454 0.794844 172.986 4.44059 173.196 9.53996C173.344 16.7926 173.204 24.0452 173.25 31.3056C173.258 67.4521 173.243 103.606 173.258 139.753C125.607 139.831 77.9558 139.768 30.3046 139.784C30.188 93.1899 30.2191 46.5959 30.2891 0.00195312ZM80.8086 31.5077C80.8319 57.2533 80.8086 83.0067 80.8242 108.752C87.2761 108.737 93.7281 108.791 100.18 108.721C100.133 98.3359 100.164 87.9429 100.157 77.5498C108.606 77.5653 117.056 77.4954 125.514 77.5809C125.591 73.0023 125.638 68.4082 125.483 63.8296C117.041 63.9229 108.606 63.853 100.164 63.8685C100.118 57.743 100.219 51.6176 100.102 45.4843C110.138 45.2978 120.181 45.461 130.217 45.4066C130.209 40.7736 130.209 36.1329 130.217 31.4999C113.752 31.4921 97.2805 31.4844 80.8086 31.5077Z" fill="#5C7B4D"/>
<path d="M80.8086 31.5077C97.2805 31.4844 113.752 31.4922 130.217 31.5C130.209 36.1329 130.209 40.7737 130.217 45.4066C120.181 45.4611 110.138 45.2978 100.102 45.4844C100.219 51.6176 100.118 57.7431 100.164 63.8686C108.606 63.853 117.041 63.923 125.483 63.8297C125.638 68.4082 125.591 73.0023 125.514 77.5809C117.056 77.4954 108.606 77.5654 100.157 77.5498C100.164 87.9429 100.133 98.336 100.18 108.721C93.7281 108.791 87.2761 108.737 80.8241 108.752C80.8086 83.0067 80.8319 57.2534 80.8086 31.5077Z" fill="#C7D5C6"/>
</svg>
