<svg width="199" height="199" viewBox="0 0 199 199" fill="none" xmlns="http://www.w3.org/2000/svg">
<g clip-path="url(#clip0_317_75)">
<path d="M179.325 31.3009C183.943 31.3398 188.553 31.2038 193.17 31.3851C192.983 77.919 193.139 124.459 193.092 171H31.7934C27.277 170.19 22.8928 167.322 22.6829 163.216C22.543 151.67 22.6596 140.117 22.6285 128.565C27.2148 126.273 31.8011 123.967 36.3797 121.668C84.0309 121.655 131.682 121.707 179.333 121.642C179.318 91.5308 179.333 61.4126 179.325 31.3009Z" fill="#794517"/>
<path d="M36.3727 -0.00195312L6.07504 18.5396L6.23674 18.6489L12.1839 18.1205L35.5508 4.62502L36.3727 -0.00195312Z" fill="#FFAD72"/>
<path d="M36.0675 0.284672L36.364 0C36.294 46.594 36.2629 93.188 36.3795 139.782C31.2285 142.887 9.51573 155.967 6.08645 157.995C6.07867 111.51 6.09422 65.0248 6.07867 18.5396C12.9883 12.1757 30.1575 6.86891 36.0675 0.284672Z" fill="#FFAD72"/>
<path d="M36.3641 0H169.764C174.529 0.792891 179.061 4.43863 179.271 9.53801C179.419 16.7906 179.279 24.0432 179.325 31.3036C179.333 67.4501 179.318 103.604 179.333 139.751C131.682 139.829 84.0308 139.766 36.3797 139.782C36.2631 93.188 36.2942 46.594 36.3641 0ZM86.8837 31.5057C86.907 57.2514 86.8837 83.0048 86.8992 108.75C93.3512 108.735 99.8032 108.789 106.255 108.719C106.208 98.334 106.24 87.9409 106.232 77.5478C114.682 77.5634 123.131 77.4934 131.589 77.5789C131.666 73.0004 131.713 68.4062 131.558 63.8277C123.116 63.921 114.682 63.851 106.24 63.8666C106.193 57.7411 106.294 51.6156 106.177 45.4824C116.213 45.2958 126.256 45.4591 136.292 45.4046C136.284 40.7717 136.284 36.1309 136.292 31.498C119.828 31.4902 103.356 31.4824 86.8837 31.5057Z" fill="#FF7B28"/>
<path d="M86.8837 31.5058C103.356 31.4825 119.827 31.4902 136.292 31.498C136.284 36.131 136.284 40.7717 136.292 45.4047C126.256 45.4591 116.213 45.2959 106.177 45.4824C106.294 51.6157 106.193 57.7411 106.24 63.8666C114.681 63.8511 123.116 63.921 131.558 63.8277C131.713 68.4063 131.666 73.0004 131.589 77.5789C123.131 77.4934 114.681 77.5634 106.232 77.5479C106.24 87.9409 106.208 98.334 106.255 108.719C99.8031 108.789 93.3512 108.735 86.8992 108.75C86.8837 83.0048 86.907 57.2514 86.8837 31.5058Z" fill="white"/>
</g>
<defs>
<clipPath id="clip0_317_75">
<rect width="199" height="199" fill="white"/>
</clipPath>
</defs>
</svg>
