<svg width="71" height="69" viewBox="0 0 71 69" fill="none" xmlns="http://www.w3.org/2000/svg">
<path d="M35.5 0C15.8879 0 0 15.831 0 35.373C0 51.0239 10.1627 64.247 24.2723 68.9323C26.0473 69.241 26.7121 68.1831 26.7121 67.2537C26.7121 66.4112 26.6702 63.6264 26.6702 60.6647C17.75 62.3015 15.4425 58.4973 14.7325 56.51C14.3323 55.4906 12.6025 52.352 11.0954 51.5127C9.85286 50.8471 8.07464 49.2135 11.0502 49.1685C13.845 49.1234 15.8427 51.7314 16.5075 52.7958C19.7025 58.1435 24.8048 56.6418 26.8477 55.7125C27.1575 53.4132 28.0902 51.8665 29.11 50.9821C21.2096 50.0978 12.9575 47.0461 12.9575 33.5143C12.9575 29.6683 14.3323 26.4847 16.5979 24.0086C16.2396 23.1243 14.9971 19.5002 16.9529 14.6348C16.9529 14.6348 19.9252 13.7086 26.7121 18.2621C29.6021 17.4632 32.5881 17.0618 35.5871 17.0691C38.6079 17.0691 41.6254 17.4646 44.4621 18.2621C51.2523 13.6636 54.2246 14.6348 54.2246 14.6348C56.1771 19.5002 54.9379 23.1243 54.5829 24.0086C56.8452 26.4847 58.22 29.6265 58.22 33.5143C58.22 47.0911 49.9227 50.0978 42.0223 50.9821C43.31 52.0883 44.4202 54.2107 44.4202 57.5261C44.4202 62.2565 44.375 66.0607 44.375 67.2537C44.375 68.1831 45.0398 69.286 46.8148 68.9323C60.8373 64.247 71 50.9821 71 35.373C71 15.831 55.1154 0 35.5 0Z" fill="#4D607B"/>
</svg>
