<svg width="175" height="171" viewBox="0 0 175 171" fill="none" xmlns="http://www.w3.org/2000/svg">
<path d="M87.5 0C39.1602 0 0 39.2334 0 87.6635C0 126.451 25.0489 159.221 59.8261 170.832C64.2011 171.597 65.8398 168.975 65.8398 166.672C65.8398 164.584 65.7364 157.683 65.7364 150.343C43.75 154.399 38.0625 144.972 36.3125 140.046C35.3261 137.52 31.0625 129.742 27.3477 127.662C24.2852 126.012 19.9023 121.964 27.2364 121.852C34.125 121.741 39.0489 128.204 40.6875 130.842C48.5625 144.095 61.1386 140.373 66.1739 138.07C66.9375 132.372 69.2364 128.539 71.75 126.347C52.2773 124.155 31.9375 116.592 31.9375 83.0572C31.9375 73.5258 35.3261 65.6361 40.9102 59.4996C40.0273 57.308 36.9648 48.3265 41.7852 36.2688C41.7852 36.2688 49.1114 33.9736 65.8398 45.2583C72.9628 43.2783 80.3227 42.2835 87.7148 42.3016C95.1602 42.3016 102.598 43.2819 109.59 45.2583C126.326 33.862 133.652 36.2688 133.652 36.2688C138.465 48.3265 135.41 57.308 134.535 59.4996C140.111 65.6361 143.5 73.4222 143.5 83.0572C143.5 116.704 123.049 124.155 103.576 126.347C106.75 129.088 109.486 134.348 109.486 142.565C109.486 154.288 109.375 163.716 109.375 166.672C109.375 168.975 111.014 171.709 115.389 170.832C149.951 159.221 175 126.347 175 87.6635C175 39.2334 135.848 0 87.5 0Z" fill="#5C7B4D"/>
</svg>
