<svg width="69" height="69" viewBox="0 0 69 69" fill="none" xmlns="http://www.w3.org/2000/svg">
<path d="M62.7584 0H6.24161C2.7945 0 0 2.7945 0 6.24161V62.7582C0 66.2055 2.7945 69 6.24161 69H62.7582C66.2055 69 69 66.2055 69 62.7582V6.24161C69 2.7945 66.2055 0 62.7584 0ZM21.3515 59.5792C21.3515 60.5824 20.5383 61.3955 19.5351 61.3955H11.8032C10.7999 61.3955 9.98676 60.5824 9.98676 59.5792V27.167C9.98676 26.1638 10.7999 25.3506 11.8032 25.3506H19.5351C20.5383 25.3506 21.3515 26.1638 21.3515 27.167V59.5792ZM15.6691 22.2953C11.6124 22.2953 8.32371 19.0066 8.32371 14.9499C8.32371 10.8931 11.6124 7.60445 15.6691 7.60445C19.7259 7.60445 23.0146 10.8931 23.0146 14.9499C23.0146 19.0066 19.7261 22.2953 15.6691 22.2953ZM61.7586 59.7255C61.7586 60.6477 61.0108 61.3955 60.0885 61.3955H51.7915C50.8693 61.3955 50.1215 60.6477 50.1215 59.7255V44.5223C50.1215 42.2544 50.7867 34.584 44.1945 34.584C39.0811 34.584 38.0439 39.8341 37.8357 42.1902V59.7255C37.8357 60.6477 37.088 61.3955 36.1656 61.3955H28.141C27.2187 61.3955 26.4709 60.6477 26.4709 59.7255V27.0207C26.4709 26.0984 27.2187 25.3506 28.141 25.3506H36.1656C37.0879 25.3506 37.8357 26.0984 37.8357 27.0207V29.8485C39.7317 27.003 42.5495 24.8068 48.5491 24.8068C61.8347 24.8068 61.7586 37.2188 61.7586 44.0386V59.7255Z" fill="#4D607B"/>
</svg>
