<svg width="308" height="376" viewBox="0 0 308 376" fill="none" xmlns="http://www.w3.org/2000/svg">
<path d="M149.252 375.171C3.2345 375.171 -61.9844 240.287 75.9927 132.972C100.416 113.976 105.844 86.8389 105.844 75.984C141.122 97.6938 135.512 17.3997 94.9126 0C162.755 0.000458885 265.877 35.2783 298.441 154.682C331.006 274.085 276.732 375.171 149.252 375.171Z" fill="#793CA4"/>
<mask id="mask0_54_18" style="mask-type:alpha" maskUnits="userSpaceOnUse" x="0" y="0" width="308" height="376">
<path d="M149.252 375.171C3.23454 375.171 -61.9843 240.287 75.9927 132.972C100.416 113.976 105.844 86.8389 105.844 75.984C141.122 97.6938 135.512 17.3997 94.9126 0C162.755 0.000458885 265.877 35.2783 298.441 154.682C331.006 274.085 276.732 375.171 149.252 375.171Z" fill="#A949A9"/>
</mask>
<g mask="url(#mask0_54_18)">
<path d="M143.836 379.92C-32.556 379.92 -46.1247 212.972 56.9966 165.537C120.191 136.469 233.388 162.824 271.38 219.81C309.372 276.797 276.808 379.92 143.836 379.92Z" fill="#9C82C1"/>
</g>
<path d="M218.025 245.628C167.473 219.346 83.2191 201.151 59.1465 237.54C35.8144 272.81 71.183 297.088 100.07 310.322C138.586 327.967 198.767 320.43 225.247 300.214" stroke="#793CA4" stroke-width="41" stroke-linecap="round"/>
</svg>
