<svg width="213" height="213" viewBox="0 0 213 213" fill="none" xmlns="http://www.w3.org/2000/svg">
<path fill-rule="evenodd" clip-rule="evenodd" d="M86.6404 13.3125C72.016 13.3125 60.1608 24.7914 60.1608 38.9514V56.7014H105.991V61.632H39.792C25.1677 61.632 13.3125 73.1109 13.3125 87.2708V125.729C13.3125 139.889 25.1677 151.368 39.792 151.368H55.0686V129.674C55.0686 115.514 66.9239 104.035 81.5484 104.035H130.433C142.808 104.035 152.839 94.3217 152.839 82.3405V38.9514C152.839 24.7914 140.984 13.3125 126.36 13.3125H86.6404ZM80.53 44.8681C85.592 44.8681 89.6956 40.8945 89.6956 35.9931C89.6956 31.0915 85.592 27.118 80.53 27.118C75.4672 27.118 71.3637 31.0915 71.3637 35.9931C71.3637 40.8945 75.4672 44.8681 80.53 44.8681Z" fill="#5C7B4D"/>
<path fill-rule="evenodd" clip-rule="evenodd" d="M126.358 199.687C140.983 199.687 152.838 188.209 152.838 174.049V156.299H107.008V151.368H173.207C187.831 151.368 199.686 139.889 199.686 125.729V87.2708C199.686 73.1109 187.831 61.6321 173.207 61.6321H157.93V83.3263C157.93 97.4868 146.075 108.965 131.451 108.965H82.5655C70.1908 108.965 60.1598 118.678 60.1598 130.66V174.049C60.1598 188.209 72.0153 199.687 86.6391 199.687H126.358ZM132.469 168.132C127.407 168.132 123.303 172.105 123.303 177.007C123.303 181.909 127.407 185.882 132.469 185.882C137.531 185.882 141.635 181.909 141.635 177.007C141.635 172.105 137.531 168.132 132.469 168.132Z" fill="#C7D5C6"/>
</svg>
