<svg width="202" height="195" viewBox="0 0 202 195" fill="none" xmlns="http://www.w3.org/2000/svg">
<path d="M111.101 103.709L102.013 1.7043H201.925L192.837 103.654L151.886 115" fill="#E34F19"/>
<path d="M151.969 106.325V10.0762H192.809L185.016 97.0996" fill="#FF7A32"/>
<path d="M120.574 22.5514H151.969V35.0541H134.289L135.445 47.8598H151.969V60.335H123.989M124.54 66.6139H137.098L137.979 76.6105L151.969 80.3559V93.4094L126.302 86.2492" fill="#DADADA"/>
<path d="M183.253 22.5514H151.914V35.0541H182.096M180.967 47.8598H151.914V60.3625H167.336L165.876 76.6105L151.914 80.3559V93.3543L177.525 86.2492" fill="white"/>
<path d="M96.9925 0L88.1562 98.9885L48.4369 110L8.82691 99.004L0 0H96.9925Z" fill="#3068B2"/>
<path d="M48.4963 101.583L80.5914 92.6852L88.1426 8.09504H48.4963V101.583Z" fill="#5CBADD"/>
<path d="M48.4962 44.8142H20.2355L21.3238 56.9565H48.4962V44.8142Z" fill="#E9E9E9"/>
<path d="M48.4963 20.2377H48.4543H18.0488L19.1526 32.3803H48.4963V20.2377Z" fill="#E9E9E9"/>
<path d="M21.8663 63.028L23.5675 82.0934L48.4404 88.9982L48.4963 88.9827V76.3495L48.443 76.3637L34.9199 72.7122L34.0554 63.028H21.8663Z" fill="#E9E9E9"/>
<path d="M63.4063 56.9566L61.9969 72.7044L48.4543 76.3597V88.9924L73.3469 82.0934L76.3829 48.0749L76.6792 44.8143L78.8713 20.2377H48.4543L48.4543 32.3803H65.5642L64.4593 44.8143H48.4543V56.9566H63.4063Z" fill="white"/>
<path d="M99.1942 93.5827H137.069V179.606H99.1942V93.5827Z" fill="white"/>
<path d="M48.7956 80.3396C60.0341 79.8642 71.2951 80.4754 82.5449 80.283C94.9557 79.8868 107.355 80.2151 119.777 80.2603C129.629 80.283 139.481 80.2151 149.333 80.2943C146.233 114.625 143.111 148.955 140.237 183.308C127.037 187.077 113.826 190.789 100.626 194.536C98.9349 195.238 97.1989 194.581 95.5757 194.14C83.0296 190.518 70.4835 186.93 57.9149 183.443C54.6459 149.102 51.5686 114.726 48.7956 80.3396ZM99.273 89.2928C98.8109 106.226 99.2054 123.159 99.0701 140.092C99.1941 155.576 98.8447 171.072 99.2505 186.556C110.342 183.93 121.288 180.704 132.233 177.524C134.984 148.128 137.667 118.733 139.966 89.3041C126.405 89.1683 112.834 89.3268 99.273 89.2928ZM85.1601 155.418C78.6447 153.629 72.2082 151.569 65.6026 150.155C65.411 154.094 65.4786 158.032 65.9295 161.949C75.6012 164.314 85.0699 167.427 94.7528 169.748C94.8204 147.325 94.719 124.891 94.7979 102.468C91.6417 102.389 88.4854 102.344 85.3292 102.276C84.9685 119.978 85.3066 137.704 85.1601 155.418Z" fill="#CFC91C"/>
<path d="M99.273 89.2928C112.834 89.3268 126.405 89.1683 139.966 89.3041C137.667 118.733 134.984 148.128 132.233 177.524C121.288 180.704 110.342 183.93 99.2505 186.556C98.8447 171.072 99.1941 155.576 99.0701 140.092C99.2054 123.159 98.8109 106.226 99.273 89.2928ZM103.072 102.457C103.117 117.035 103.128 131.625 103.072 146.204C109.7 145.129 116.306 143.895 122.911 142.684C122.81 146.08 122.674 149.475 122.528 152.871C116.091 154.592 109.666 156.369 103.196 157.965C103.094 161.881 103.083 165.797 103.117 169.725C111.267 167.891 119.293 165.582 127.386 163.533C128.401 163.058 130.351 163.115 130.261 161.519C131.241 151.037 131.85 140.511 132.797 130.007C126.09 130.562 119.45 131.693 112.743 132.157C112.687 126.204 112.676 120.25 112.766 114.296C119.822 114.296 126.868 114.296 133.924 114.308C134.375 110.335 134.77 106.35 135.074 102.366C124.41 102.411 113.735 102.264 103.072 102.457Z" fill="#FFD900"/>
<path d="M85.1601 155.418C85.3066 137.704 84.9685 119.978 85.3292 102.276C88.4854 102.344 91.6417 102.389 94.7979 102.468C94.719 124.891 94.8204 147.325 94.7528 169.748C85.0699 167.427 75.6012 164.314 65.9295 161.949C65.4786 158.032 65.411 154.094 65.6026 150.155C72.2082 151.569 78.6447 153.629 85.1601 155.418Z" fill="#EAEAEA"/>
</svg>
