<svg width="209" height="235" viewBox="0 0 209 235" fill="none" xmlns="http://www.w3.org/2000/svg">
<path d="M117.632 103.709L108.544 1.70435H208.456L199.368 103.654L158.417 115" fill="#5C7B4D"/>
<path d="M158.5 106.325V10.0762H199.34L191.547 97.0996" fill="#6E926C"/>
<path d="M127.105 22.5513H158.5V35.054H140.82L141.977 47.8597H158.5V60.3349H130.52M131.071 66.6138H143.629L144.51 76.6105L158.5 80.3558V93.4093L132.834 86.2491" fill="#9DA99E"/>
<path d="M189.784 22.5513H158.445V35.054H188.628M187.499 47.8597H158.445V60.3624H173.867L172.407 76.6104L158.445 80.3558V93.3542L184.056 86.2491" fill="#C7D5C6"/>
<path d="M103.524 0L94.6875 98.9885L54.9681 110L15.3582 99.004L6.53126 0H103.524Z" fill="#5C7B4D"/>
<path d="M55.0275 101.583L87.1227 92.6852L94.6739 8.09497H55.0275V101.583Z" fill="#6E926C"/>
<path d="M55.0275 44.8142H26.7668L27.855 56.9565H55.0275V44.8142Z" fill="#9DA99E"/>
<path d="M55.0275 20.2378H54.9855H24.58L25.6838 32.3804H55.0275V20.2378Z" fill="#9DA99E"/>
<path d="M28.3976 63.0281L30.0987 82.0934L54.9716 88.9983L55.0275 88.9828V76.3496L54.9743 76.3637L41.4512 72.7122L40.5867 63.0281H34.0155H28.3976Z" fill="#9DA99E"/>
<path d="M69.9376 56.9567L68.5282 72.7045L54.9855 76.3598V88.9925L79.8782 82.0935L80.0608 80.042L82.9142 48.075L83.2105 44.8144L85.4025 20.2378H54.9855V32.3804H72.0955L70.9906 44.8144H54.9855V56.9567H69.9376Z" fill="#C7D5C6"/>
<g clip-path="url(#clip0_575_4)" filter="url(#filter0_d_575_4)">
<rect x="105.725" y="93.5828" width="37.875" height="86.0236" fill="#C7D5C6"/>
<path d="M55.3268 80.3397C66.5653 79.8643 77.8264 80.4755 89.0762 80.2831C101.487 79.8869 113.887 80.2152 126.309 80.2605C136.161 80.2831 146.013 80.2152 155.865 80.2944C152.765 114.625 149.642 148.955 146.768 183.308C133.568 187.077 120.357 190.789 107.157 194.536C105.466 195.238 103.73 194.581 102.107 194.14C89.5609 190.518 77.0148 186.93 64.4461 183.444C61.1772 149.102 58.0998 114.727 55.3268 80.3397ZM105.804 89.2929C105.342 106.226 105.737 123.159 105.601 140.092C105.725 155.576 105.376 171.072 105.782 186.556C116.874 183.93 127.819 180.704 138.765 177.524C141.515 148.129 144.198 118.733 146.497 89.3043C132.937 89.1684 119.365 89.3269 105.804 89.2929ZM91.6913 155.418C85.1759 153.63 78.7394 151.57 72.1339 150.155C71.9422 154.094 72.0099 158.033 72.4608 161.949C82.1324 164.315 91.6011 167.427 101.284 169.748C101.352 147.325 101.25 124.891 101.329 102.468C98.1729 102.389 95.0167 102.344 91.8604 102.276C91.4997 119.978 91.8379 137.704 91.6913 155.418Z" fill="#5C7B4D"/>
<path d="M105.804 89.2929C119.365 89.3269 132.937 89.1684 146.497 89.3043C144.198 118.733 141.515 148.129 138.765 177.524C127.819 180.704 116.874 183.93 105.782 186.556C105.376 171.072 105.725 155.576 105.601 140.092C105.737 123.159 105.342 106.226 105.804 89.2929ZM109.603 102.457C109.648 117.036 109.659 131.626 109.603 146.204C116.231 145.129 122.837 143.895 129.442 142.684C129.341 146.08 129.206 149.476 129.059 152.871C122.623 154.592 116.197 156.369 109.727 157.965C109.626 161.881 109.614 165.797 109.648 169.725C117.798 167.891 125.824 165.582 133.917 163.534C134.932 163.058 136.882 163.115 136.792 161.519C137.773 151.038 138.381 140.511 139.328 130.007C132.621 130.562 125.982 131.694 119.275 132.158C119.218 126.204 119.207 120.25 119.297 114.296C126.354 114.296 133.399 114.296 140.455 114.308C140.906 110.335 141.301 106.351 141.605 102.366C130.942 102.412 120.267 102.264 109.603 102.457Z" fill="#6E926C"/>
<path d="M91.6913 155.418C91.8379 137.704 91.4997 119.978 91.8604 102.276C95.0167 102.344 98.1729 102.389 101.329 102.468C101.25 124.891 101.352 147.325 101.284 169.748C91.6012 167.427 82.1325 164.315 72.4608 161.949C72.0099 158.033 71.9422 154.094 72.1339 150.155C78.7395 151.569 85.1759 153.629 91.6913 155.418Z" fill="#9DA99E"/>
</g>
<defs>
<filter id="filter0_d_575_4" x="15" y="40" width="181" height="195" filterUnits="userSpaceOnUse" color-interpolation-filters="sRGB">
<feFlood flood-opacity="0" result="BackgroundImageFix"/>
<feColorMatrix in="SourceAlpha" type="matrix" values="0 0 0 0 0 0 0 0 0 0 0 0 0 0 0 0 0 0 127 0" result="hardAlpha"/>
<feOffset/>
<feGaussianBlur stdDeviation="20"/>
<feComposite in2="hardAlpha" operator="out"/>
<feColorMatrix type="matrix" values="0 0 0 0 0 0 0 0 0 0 0 0 0 0 0 0 0 0 0.5 0"/>
<feBlend mode="normal" in2="BackgroundImageFix" result="effect1_dropShadow_575_4"/>
<feBlend mode="normal" in="SourceGraphic" in2="effect1_dropShadow_575_4" result="shape"/>
</filter>
<clipPath id="clip0_575_4">
<rect width="101" height="115" fill="white" transform="translate(55 80)"/>
</clipPath>
</defs>
</svg>
