<svg width="70" height="49" viewBox="0 0 70 49" fill="none" xmlns="http://www.w3.org/2000/svg">
<path d="M34.998 0C34.998 0 56.8883 0.000320957 62.3447 1.46387C65.3582 2.27058 67.7267 4.63887 68.5332 7.65234C69.9907 13.1086 69.9971 24.4978 69.9971 24.5C69.9971 24.5 69.9968 35.892 68.5332 41.3486C67.7266 44.3619 65.358 46.7296 62.3447 47.5361C56.8883 48.9998 34.998 49 34.998 49C34.9212 49 13.0999 48.9971 7.65234 47.5361C4.63902 46.7296 2.27068 44.3619 1.46387 41.3486C0.000320957 35.892 0 24.5 0 24.5C2.05226e-08 24.4973 0.000573814 13.1084 1.46387 7.65234C2.27055 4.63882 4.63884 2.27055 7.65234 1.46387C13.0999 0.00298424 34.9212 4.53195e-06 34.998 0ZM27.9922 34.999L46.1768 24.501L27.9922 14.0029V34.999Z" fill="#4D607B"/>
</svg>
